<mxfile host="app.diagrams.net" modified="2023-10-11T16:15:45.592Z" agent="Mozilla/5.0 (Macintosh; Intel Mac OS X 10_15_7) AppleWebKit/605.1.15 (KHTML, like Gecko) Version/17.0 Safari/605.1.15" etag="W2z7CkIOjMHrIZ3RBh9c" version="22.0.4" type="github">
  <diagram name="Page-1" id="eBtny-HgfErK7LiOIkg8">
    <mxGraphModel dx="940" dy="764" grid="0" gridSize="10" guides="1" tooltips="1" connect="1" arrows="1" fold="1" page="0" pageScale="1" pageWidth="827" pageHeight="1169" math="1" shadow="0">
      <root>
        <mxCell id="0" />
        <mxCell id="1" parent="0" />
        <mxCell id="OysmFfrSoxLZyFZqwhQm-153" value="$$&lt;br style=&quot;border-color: var(--border-color);&quot;&gt;\bfm{x}_{IK}[k]=\bfm{D}[j]\bfm{x}[k]&lt;br style=&quot;border-color: var(--border-color);&quot;&gt;$$" style="text;html=1;align=center;verticalAlign=middle;resizable=0;points=[];autosize=1;strokeColor=none;fillColor=none;" vertex="1" parent="1">
          <mxGeometry x="358" y="2" width="250" height="54" as="geometry" />
        </mxCell>
        <mxCell id="OysmFfrSoxLZyFZqwhQm-157" value="" style="rounded=1;whiteSpace=wrap;html=1;arcSize=13;strokeColor=#999999;dashed=1;" vertex="1" parent="1">
          <mxGeometry x="-33.34" y="-14" width="160.34" height="107" as="geometry" />
        </mxCell>
        <mxCell id="OysmFfrSoxLZyFZqwhQm-156" value="" style="rounded=1;whiteSpace=wrap;html=1;arcSize=13;strokeColor=#999999;dashed=1;" vertex="1" parent="1">
          <mxGeometry x="-33.34" y="-94" width="160.34" height="64" as="geometry" />
        </mxCell>
        <mxCell id="OysmFfrSoxLZyFZqwhQm-122" value="" style="rounded=1;whiteSpace=wrap;html=1;arcSize=13;strokeColor=#999999;dashed=1;" vertex="1" parent="1">
          <mxGeometry x="133" y="-64" width="278" height="138" as="geometry" />
        </mxCell>
        <mxCell id="OysmFfrSoxLZyFZqwhQm-40" value="" style="shape=image;verticalLabelPosition=bottom;labelBackgroundColor=default;verticalAlign=top;aspect=fixed;imageAspect=0;image=data:image/svg+xml,PHN2ZyB4bWxucz0iaHR0cDovL3d3dy53My5vcmcvMjAwMC9zdmciIGlkPSJzdmcxIiB2ZXJzaW9uPSIxLjEiIHZpZXdCb3g9IjAgMCAyMy40MzE0OTIgMjIuNzc3Mzc5IiBoZWlnaHQ9IjIyLjc3NzM3OG1tIiB3aWR0aD0iMjMuNDMxNDkybW0iPiYjeGE7ICAmI3hhOyAgICAmI3hhOyAgJiN4YTsgIDxkZWZzIGlkPSJkZWZzMSI+JiN4YTsgICAgPG1hcmtlciBzdHlsZT0ib3ZlcmZsb3c6dmlzaWJsZSIgaWQ9IlRyaWFuZ2xlSW5MLTI1LTciIHJlZlg9IjAiIHJlZlk9IjAiIG9yaWVudD0iYXV0byI+JiN4YTsgICAgICA8cGF0aCB0cmFuc2Zvcm09InNjYWxlKC0wLjgpIiBzdHlsZT0iZmlsbDojMjc3ZmVmO2ZpbGwtb3BhY2l0eToxO2ZpbGwtcnVsZTpldmVub2RkO3N0cm9rZTojMjc3ZmVmO3N0cm9rZS13aWR0aDoxcHQ7c3Ryb2tlLW9wYWNpdHk6MSIgZD0iTSA1Ljc3LDAgLTIuODgsNSBWIC01IFoiIGlkPSJwYXRoNDM0NC0xNC0yIi8+JiN4YTsgICAgPC9tYXJrZXI+JiN4YTsgICAgPG1hcmtlciBzdHlsZT0ib3ZlcmZsb3c6dmlzaWJsZSIgaWQ9IlRyaWFuZ2xlSW5MLTI1LTctMSIgcmVmWD0iMCIgcmVmWT0iMCIgb3JpZW50PSJhdXRvIj4mI3hhOyAgICAgIDxwYXRoIHRyYW5zZm9ybT0ic2NhbGUoLTAuOCkiIHN0eWxlPSJmaWxsOiMyNzdmZWY7ZmlsbC1vcGFjaXR5OjE7ZmlsbC1ydWxlOmV2ZW5vZGQ7c3Ryb2tlOiMyNzdmZWY7c3Ryb2tlLXdpZHRoOjFwdDtzdHJva2Utb3BhY2l0eToxIiBkPSJNIDUuNzcsMCAtMi44OCw1IFYgLTUgWiIgaWQ9InBhdGg0MzQ0LTE0LTItNyIvPiYjeGE7ICAgIDwvbWFya2VyPiYjeGE7ICAgIDxtYXJrZXIgc3R5bGU9Im92ZXJmbG93OnZpc2libGUiIGlkPSJUcmlhbmdsZUluTC0yLTAiIHJlZlg9IjAiIHJlZlk9IjAiIG9yaWVudD0iYXV0byI+JiN4YTsgICAgICA8cGF0aCB0cmFuc2Zvcm09InNjYWxlKC0wLjgpIiBzdHlsZT0iZmlsbDojMjc3ZmVmO2ZpbGwtb3BhY2l0eToxO2ZpbGwtcnVsZTpldmVub2RkO3N0cm9rZTojMjc3ZmVmO3N0cm9rZS13aWR0aDoxcHQ7c3Ryb2tlLW9wYWNpdHk6MSIgZD0iTSA1Ljc3LDAgLTIuODgsNSBWIC01IFoiIGlkPSJwYXRoNDM0NC0xLTYtMyIvPiYjeGE7ICAgIDwvbWFya2VyPiYjeGE7ICAgIDxtYXJrZXIgc3R5bGU9Im92ZXJmbG93OnZpc2libGUiIGlkPSJUcmlhbmdsZU91dEwtMyIgcmVmWD0iMCIgcmVmWT0iMCIgb3JpZW50PSJhdXRvIj4mI3hhOyAgICAgIDxwYXRoIHRyYW5zZm9ybT0ic2NhbGUoMC44KSIgc3R5bGU9ImZpbGw6IzI3N2ZmZjtmaWxsLW9wYWNpdHk6MTtmaWxsLXJ1bGU6ZXZlbm9kZDtzdHJva2U6IzI3N2ZmZjtzdHJva2Utd2lkdGg6MXB0O3N0cm9rZS1vcGFjaXR5OjEiIGQ9Ik0gNS43NywwIC0yLjg4LDUgViAtNSBaIiBpZD0icGF0aDQzNTMtNCIvPiYjeGE7ICAgIDwvbWFya2VyPiYjeGE7ICA8L2RlZnM+JiN4YTsgIDxnIHRyYW5zZm9ybT0idHJhbnNsYXRlKC02MS4wMjAyODUsLTU4Ljc3MTA5MikiIGlkPSJsYXllcjEiPiYjeGE7ICAgIDxnIHN0eWxlPSJkaXNwbGF5OmlubGluZSIgaWQ9ImcxNzAyOSIgdHJhbnNmb3JtPSJtYXRyaXgoMC4yODIyMjIyMywwLDAsMC4yODIyMjIyMyw1LjQyNDUyMjEsLTU3LjU3Mjk3NSkiPiYjeGE7ICAgICAgPGcgc3R5bGU9ImRpc3BsYXk6aW5saW5lIiBpZD0iZzE3MjYxIiB0cmFuc2Zvcm09InRyYW5zbGF0ZSgxNjcuMDc2NzcsLTM2LjUyMDEwOCkiPiYjeGE7ICAgICAgICA8cGF0aCBzdHlsZT0iZmlsbDpub25lO2ZpbGwtcnVsZTpldmVub2RkO3N0cm9rZTojMjc3ZmVmO3N0cm9rZS13aWR0aDoxO3N0cm9rZS1saW5lY2FwOmJ1dHQ7c3Ryb2tlLWxpbmVqb2luOm1pdGVyO3N0cm9rZS1taXRlcmxpbWl0OjQ7c3Ryb2tlLWRhc2hhcnJheTpub25lO3N0cm9rZS1vcGFjaXR5OjE7bWFya2VyLXN0YXJ0OnVybCgjVHJpYW5nbGVJbkwtMi0wKSIgZD0iTSAxMDQuOTI4NDYsNTIxLjQ1NjcgNDkuMTQwNjI1LDQ2NS42Njg4OSIgaWQ9InBhdGg0MTYwLTMiLz4mI3hhOyAgICAgICAgPHBhdGggc3R5bGU9ImZpbGw6bm9uZTtmaWxsLXJ1bGU6ZXZlbm9kZDtzdHJva2U6IzI3N2ZmZjtzdHJva2Utd2lkdGg6MXB4O3N0cm9rZS1saW5lY2FwOmJ1dHQ7c3Ryb2tlLWxpbmVqb2luOm1pdGVyO3N0cm9rZS1vcGFjaXR5OjEiIGQ9Im0gOTIuMDczMzY1LDQ3OC4xNzA3NCAtMzAuNDMwODQsMzAuNDMwODUiIGlkPSJwYXRoNDE2MC05LTgiLz4mI3hhOyAgICAgICAgPHBhdGggc3R5bGU9ImZpbGw6bm9uZTtmaWxsLXJ1bGU6ZXZlbm9kZDtzdHJva2U6IzI3N2ZmZjtzdHJva2Utd2lkdGg6MXB4O3N0cm9rZS1saW5lY2FwOmJ1dHQ7c3Ryb2tlLWxpbmVqb2luOm1pdGVyO3N0cm9rZS1vcGFjaXR5OjEiIGQ9Ik0gMTAxLjAzODQ3LDQ4Ny41MTQ2NSA3MC42MDc2MzUsNTE3Ljk0NTUiIGlkPSJwYXRoNDE2MC05LTYtOSIvPiYjeGE7ICAgICAgICA8cGF0aCBzdHlsZT0iZmlsbDpub25lO2ZpbGwtcnVsZTpldmVub2RkO3N0cm9rZTojMjc3ZmZmO3N0cm9rZS13aWR0aDoxcHg7c3Ryb2tlLWxpbmVjYXA6YnV0dDtzdHJva2UtbGluZWpvaW46bWl0ZXI7c3Ryb2tlLW9wYWNpdHk6MSIgZD0iTSAxMTAuMDAzNTcsNDk2LjM1MzQ5IDc5LjU3MjczNSw1MjYuNzg0MzQiIGlkPSJwYXRoNDE2MC05LTYtNS05Ii8+JiN4YTsgICAgICA8L2c+JiN4YTsgICAgICA8ZyBzdHlsZT0iZGlzcGxheTppbmxpbmUiIGlkPSJnMTcyNzMiIHRyYW5zZm9ybT0idHJhbnNsYXRlKDE2Ny4wNzY3NywtMzYuNTIwMTA4KSI+JiN4YTsgICAgICAgIDxwYXRoIGlkPSJwYXRoMTMyOTAtMi04IiBkPSJtIDM3LjgwNDAwNSw0ODYuMDY4NzcgLTUuNjc0MjQsNi44NDQxMSIgc3R5bGU9ImZpbGw6bm9uZTtzdHJva2U6IzAwMDAwMDtzdHJva2Utd2lkdGg6MC45MzU1NjU7c3Ryb2tlLWxpbmVjYXA6YnV0dDtzdHJva2UtbGluZWpvaW46bWl0ZXI7c3Ryb2tlLW1pdGVybGltaXQ6NDtzdHJva2UtZGFzaGFycmF5Om5vbmU7c3Ryb2tlLW9wYWNpdHk6MSIvPiYjeGE7ICAgICAgICA8cGF0aCBpZD0icGF0aDEzMjkwLTMtOC04IiBkPSJtIDQyLjczNDQwNSw0ODYuMDY4NzcgLTUuNjc0MjEsNi44NDQxMSIgc3R5bGU9ImZpbGw6bm9uZTtzdHJva2U6IzAwMDAwMDtzdHJva2Utd2lkdGg6MC45MzU1NjU7c3Ryb2tlLWxpbmVjYXA6YnV0dDtzdHJva2UtbGluZWpvaW46bWl0ZXI7c3Ryb2tlLW1pdGVybGltaXQ6NDtzdHJva2UtZGFzaGFycmF5Om5vbmU7c3Ryb2tlLW9wYWNpdHk6MSIvPiYjeGE7ICAgICAgICA8cGF0aCBpZD0icGF0aDEzMjkwLTMtMi0yLTgiIGQ9Im0gNDcuNjY0ODg1LDQ4Ni4wNjg3NyAtNS42NzQyMiw2Ljg0NDExIiBzdHlsZT0iZmlsbDpub25lO3N0cm9rZTojMDAwMDAwO3N0cm9rZS13aWR0aDowLjkzNTU2NTtzdHJva2UtbGluZWNhcDpidXR0O3N0cm9rZS1saW5lam9pbjptaXRlcjtzdHJva2UtbWl0ZXJsaW1pdDo0O3N0cm9rZS1kYXNoYXJyYXk6bm9uZTtzdHJva2Utb3BhY2l0eToxIi8+JiN4YTsgICAgICAgIDxwYXRoIGlkPSJwYXRoMTMyOTAtMy0xLTQtNyIgZD0ibSA1Mi41OTUzNTUsNDg2LjA2ODc3IC01LjY3NDIxLDYuODQ0MTEiIHN0eWxlPSJmaWxsOm5vbmU7c3Ryb2tlOiMwMDAwMDA7c3Ryb2tlLXdpZHRoOjAuOTM1NTY1O3N0cm9rZS1saW5lY2FwOmJ1dHQ7c3Ryb2tlLWxpbmVqb2luOm1pdGVyO3N0cm9rZS1taXRlcmxpbWl0OjQ7c3Ryb2tlLWRhc2hhcnJheTpub25lO3N0cm9rZS1vcGFjaXR5OjEiLz4mI3hhOyAgICAgICAgPHBhdGggaWQ9InBhdGgxMzI5MC0zLTItOC01LTIxIiBkPSJtIDU3LjUyNTc2NSw0ODYuMDY4NzcgLTUuNjc0MjEsNi44NDQxMSIgc3R5bGU9ImZpbGw6bm9uZTtzdHJva2U6IzAwMDAwMDtzdHJva2Utd2lkdGg6MC45MzU1NjU7c3Ryb2tlLWxpbmVjYXA6YnV0dDtzdHJva2UtbGluZWpvaW46bWl0ZXI7c3Ryb2tlLW1pdGVybGltaXQ6NDtzdHJva2UtZGFzaGFycmF5Om5vbmU7c3Ryb2tlLW9wYWNpdHk6MSIvPiYjeGE7ICAgICAgICA8cGF0aCBpZD0icGF0aDU1NzYtOC00LTkiIGQ9Im0gNDcuNTg0MTM1LDQ4My44NzA3OSB2IC0zMS42MTg3OCAxOC4xMTI3NiBsIDEwLjU3NDU3LC0xOC4zMjIxOSAtMTAuNTc0NTcsMTguMzIyMTkgLTEwLjQ2OTc3LC0xOC4wMDgxIiBzdHlsZT0iZmlsbDpub25lO3N0cm9rZTojMDAwMDAwO3N0cm9rZS13aWR0aDozLjY2NDUzO3N0cm9rZS1saW5lY2FwOmJ1dHQ7c3Ryb2tlLWxpbmVqb2luOm1pdGVyO3N0cm9rZS1taXRlcmxpbWl0OjQ7c3Ryb2tlLWRhc2hhcnJheTpub25lO3N0cm9rZS1vcGFjaXR5OjEiLz4mI3hhOyAgICAgICAgPHBhdGggc3R5bGU9ImZpbGw6bm9uZTtmaWxsLXJ1bGU6ZXZlbm9kZDtzdHJva2U6IzAwMDAwMDtzdHJva2Utd2lkdGg6My42NjQ1MztzdHJva2UtbGluZWNhcDpidXR0O3N0cm9rZS1saW5lam9pbjptaXRlcjtzdHJva2UtbWl0ZXJsaW1pdDo0O3N0cm9rZS1kYXNoYXJyYXk6bm9uZTtzdHJva2Utb3BhY2l0eToxIiBkPSJtIDM3LjM5OTQ4NSw0ODQuNTUzMzMgaCAyMC40NzcwNCIgaWQ9InBhdGg1NjQ1LTctOCIvPiYjeGE7ICAgICAgICA8cGF0aCBzdHlsZT0iZmlsbDpub25lO2ZpbGwtcnVsZTpldmVub2RkO3N0cm9rZTojMjc3ZmZmO3N0cm9rZS13aWR0aDoxO3N0cm9rZS1saW5lY2FwOmJ1dHQ7c3Ryb2tlLWxpbmVqb2luOm1pdGVyO3N0cm9rZS1taXRlcmxpbWl0OjQ7c3Ryb2tlLWRhc2hhcnJheTpub25lO3N0cm9rZS1vcGFjaXR5OjE7bWFya2VyLWVuZDp1cmwoI1RyaWFuZ2xlT3V0TC0zKSIgZD0ibSA0Ny42Mzc5OTUsNDgwLjAwODU4IHYgLTIuNjcxMTQiIGlkPSJwYXRoNTM5MC04Ii8+JiN4YTsgICAgICA8L2c+JiN4YTsgICAgICA8ZyBzdHlsZT0iZGlzcGxheTppbmxpbmUiIHRyYW5zZm9ybT0idHJhbnNsYXRlKDk3LjMxMTc1NSwtNDAwLjYyNzgpIiBpZD0iZzU2MTEiPiYjeGE7ICAgICAgICA8cmVjdCBzdHlsZT0iZmlsbDpub25lO2ZpbGwtb3BhY2l0eToxO3N0cm9rZTojMDAwMDAwO3N0cm9rZS13aWR0aDoyO3N0cm9rZS1saW5lam9pbjpyb3VuZDtzdHJva2UtbWl0ZXJsaW1pdDoxMDtzdHJva2UtZGFzaGFycmF5Om5vbmU7c3Ryb2tlLWRhc2hvZmZzZXQ6MDtzdHJva2Utb3BhY2l0eToxIiBpZD0icmVjdDQxMzYtOCIgd2lkdGg9IjgxLjAyNDk3MSIgaGVpZ2h0PSI3OC43MDcyNDUiIHg9IjEwMC42ODExIiB5PSI4MTMuODcwNTQiIHJ5PSI4LjA4MTIyMDYiLz4mI3hhOyAgICAgIDwvZz4mI3hhOyAgICA8L2c+JiN4YTsgIDwvZz4mI3hhOzwvc3ZnPg==;" vertex="1" parent="1">
          <mxGeometry x="-12" y="-68" width="32" height="32" as="geometry" />
        </mxCell>
        <mxCell id="OysmFfrSoxLZyFZqwhQm-43" value="" style="shape=image;verticalLabelPosition=bottom;labelBackgroundColor=default;verticalAlign=top;aspect=fixed;imageAspect=0;image=data:image/svg+xml,PHN2ZyB4bWxucz0iaHR0cDovL3d3dy53My5vcmcvMjAwMC9zdmciIGlkPSJzdmcxIiB2ZXJzaW9uPSIxLjEiIHZpZXdCb3g9IjAgMCAyMy4yODQwMzkgMzEuODgzNjE5IiBoZWlnaHQ9IjMxLjg4MzYxOW1tIiB3aWR0aD0iMjMuMjg0MDM5bW0iPiYjeGE7ICAmI3hhOyAgPGRlZnMgaWQ9ImRlZnMxIi8+JiN4YTsgIDxnIHRyYW5zZm9ybT0idHJhbnNsYXRlKC01My43MTA0MTQsLTE0My45MjgxNCkiIGlkPSJsYXllcjEiPiYjeGE7ICAgIDxwYXRoIHN0eWxlPSJmaWxsOm5vbmU7c3Ryb2tlOiMwMDAwMDA7c3Ryb2tlLXdpZHRoOjAuNTA1MTc4O3N0cm9rZS1saW5lY2FwOmJ1dHQ7c3Ryb2tlLWxpbmVqb2luOnJvdW5kO3N0cm9rZS1taXRlcmxpbWl0OjEwLjQzMztzdHJva2UtZGFzaGFycmF5Om5vbmU7c3Ryb2tlLW9wYWNpdHk6MSIgZD0ibSA1My45NjMwMDMsMTQ5LjA0NzIyIGggMjIuNzc4ODYgdiAyNi41MTE5NSBoIC0yMi43Nzg4NiB6IiBpZD0icGF0aDIxOSIvPiYjeGE7ICAgIDxwYXRoIHN0eWxlPSJmaWxsOm5vbmU7c3Ryb2tlOiMwMDAwMDA7c3Ryb2tlLXdpZHRoOjAuNTA1MTc4O3N0cm9rZS1saW5lY2FwOmJ1dHQ7c3Ryb2tlLWxpbmVqb2luOnJvdW5kO3N0cm9rZS1taXRlcmxpbWl0OjEwLjQzMztzdHJva2UtZGFzaGFycmF5Om5vbmU7c3Ryb2tlLW9wYWNpdHk6MSIgZD0ibSA3MS43NzY4NjgsMTUyLjk0MTUzIGMgMCwwLjExODUzIC0wLjA5NDksMC4yMTM3OCAtMC4yMTM0MywwLjIxMzc4IC0wLjExNzEyMiwwIC0wLjIxMzc4MywtMC4wOTUyIC0wLjIxMzc4MywtMC4yMTM3OCAwLC0wLjExNzEyIDAuMDk2NjYsLTAuMjEzNDMgMC4yMTM3ODMsLTAuMjEzNDMgMC4xMTg1MzMsMCAwLjIxMzQzLDAuMDk2MyAwLjIxMzQzLDAuMjEzNDMgeiIgaWQ9InBhdGgyMjEiLz4mI3hhOyAgICA8cGF0aCBzdHlsZT0iZmlsbDpub25lO3N0cm9rZTojMDAwMDAwO3N0cm9rZS13aWR0aDowLjI4MjIyMjtzdHJva2UtbGluZWNhcDpidXR0O3N0cm9rZS1saW5lam9pbjpyb3VuZDtzdHJva2UtbWl0ZXJsaW1pdDoxMC40MzM7c3Ryb2tlLWRhc2hhcnJheTpub25lO3N0cm9rZS1vcGFjaXR5OjEiIGQ9Im0gNjQuNzkxNTE2LDE1MC44ODQxMyBjIDAsMC4yOTYzMyAtMC4yMzk1MzYsMC41MzQ4MSAtMC41MzQ0NTgsMC41MzQ4MSAtMC4yOTQ5MjMsMCAtMC41MzQ4MTEsLTAuMjM4NDggLTAuNTM0ODExLC0wLjUzNDgxIDAsLTAuMjk0OTIgMC4yMzk4ODgsLTAuNTMzMDUgMC41MzQ4MTEsLTAuNTMzMDUgMC4yOTQ5MjIsMCAwLjUzNDQ1OCwwLjIzODEzIDAuNTM0NDU4LDAuNTMzMDUgeiIgaWQ9InBhdGgyMjIiLz4mI3hhOyAgICA8cGF0aCBzdHlsZT0iZmlsbDpub25lO3N0cm9rZTojMDAwMDAwO3N0cm9rZS13aWR0aDowLjI4MjIyMjtzdHJva2UtbGluZWNhcDpidXR0O3N0cm9rZS1saW5lam9pbjpyb3VuZDtzdHJva2UtbWl0ZXJsaW1pdDoxMC40MzM7c3Ryb2tlLWRhc2hhcnJheTpub25lO3N0cm9rZS1vcGFjaXR5OjEiIGQ9Im0gNjQuNzkxNTE2LDE1NS4xMzEyMiBjIDAsMC4yOTQ5MiAtMC4yMzk1MzYsMC41MzQ4MSAtMC41MzQ0NTgsMC41MzQ4MSAtMC4yOTQ5MjMsMCAtMC41MzQ4MTEsLTAuMjM5ODkgLTAuNTM0ODExLC0wLjUzNDgxIDAsLTAuMjk0OTIgMC4yMzk4ODgsLTAuNTM0NDYgMC41MzQ4MTEsLTAuNTM0NDYgMC4yOTQ5MjIsMCAwLjUzNDQ1OCwwLjIzOTU0IDAuNTM0NDU4LDAuNTM0NDYgeiIgaWQ9InBhdGgyMjMiLz4mI3hhOyAgICA8cGF0aCBzdHlsZT0iZmlsbDpub25lO3N0cm9rZTojMDAwMDAwO3N0cm9rZS13aWR0aDowLjI4MjIyMjtzdHJva2UtbGluZWNhcDpidXR0O3N0cm9rZS1saW5lam9pbjptaXRlcjtzdHJva2UtbWl0ZXJsaW1pdDo0O3N0cm9rZS1kYXNoYXJyYXk6bm9uZTtzdHJva2Utb3BhY2l0eToxIiBkPSJtIDY0LjI4NDU3NCwxNTUuNjI0NzYgLTIuMTg4MjgsMy43ODk1NCBIIDU0LjEwMjM1IiBpZD0icGF0aDIyNCIvPiYjeGE7ICAgIDxwYXRoIHN0eWxlPSJmaWxsOm5vbmU7c3Ryb2tlOiMwMDAwMDA7c3Ryb2tlLXdpZHRoOjAuNTA1MTc4O3N0cm9rZS1saW5lY2FwOmJ1dHQ7c3Ryb2tlLWxpbmVqb2luOnJvdW5kO3N0cm9rZS1taXRlcmxpbWl0OjEwLjQzMztzdHJva2UtZGFzaGFycmF5Om5vbmU7c3Ryb2tlLW9wYWNpdHk6MSIgZD0ibSA3MS43NzY4NjgsMTcxLjU1NzYxIGMgMCwtMC4xMTcxMiAtMC4wOTQ5LC0wLjIxMzc4IC0wLjIxMzQzLC0wLjIxMzc4IC0wLjExNzEyMiwwIC0wLjIxMzc4MywwLjA5NjcgLTAuMjEzNzgzLDAuMjEzNzggMCwwLjExODU0IDAuMDk2NjYsMC4yMTM0MyAwLjIxMzc4MywwLjIxMzQzIDAuMTE4NTMzLDAgMC4yMTM0MywtMC4wOTQ5IDAuMjEzNDMsLTAuMjEzNDMgeiIgaWQ9InBhdGgyMjYiLz4mI3hhOyAgICA8cGF0aCBzdHlsZT0iZmlsbDpub25lO3N0cm9rZTojMDAwMDAwO3N0cm9rZS13aWR0aDowLjI4MjIyMjtzdHJva2UtbGluZWNhcDpidXR0O3N0cm9rZS1saW5lam9pbjpyb3VuZDtzdHJva2UtbWl0ZXJsaW1pdDoxMC40MzM7c3Ryb2tlLWRhc2hhcnJheTpub25lO3N0cm9rZS1vcGFjaXR5OjEiIGQ9Im0gNjQuNzkxNTE2LDE3My43MjI2MSBjIDAsLTAuMjk0OTIgLTAuMjM5NTM2LC0wLjUzNDgxIC0wLjUzNDQ1OCwtMC41MzQ4MSAtMC4yOTQ5MjMsMCAtMC41MzQ4MTEsMC4yMzk4OSAtMC41MzQ4MTEsMC41MzQ4MSAwLDAuMjk0OTIgMC4yMzk4ODgsMC41MzQ0NiAwLjUzNDgxMSwwLjUzNDQ2IDAuMjk0OTIyLDAgMC41MzQ0NTgsLTAuMjM5NTQgMC41MzQ0NTgsLTAuNTM0NDYgeiIgaWQ9InBhdGgyMjciLz4mI3hhOyAgICA8cGF0aCBzdHlsZT0iZmlsbDpub25lO3N0cm9rZTojMDAwMDAwO3N0cm9rZS13aWR0aDowLjI4MjIyMjtzdHJva2UtbGluZWNhcDpidXR0O3N0cm9rZS1saW5lam9pbjpyb3VuZDtzdHJva2UtbWl0ZXJsaW1pdDoxMC40MzM7c3Ryb2tlLWRhc2hhcnJheTpub25lO3N0cm9rZS1vcGFjaXR5OjEiIGQ9Im0gNjQuNzkxNTE2LDE2OS40NzU1MiBjIDAsLTAuMjk0OTIgLTAuMjM5NTM2LC0wLjUzNDgxIC0wLjUzNDQ1OCwtMC41MzQ4MSAtMC4yOTQ5MjMsMCAtMC41MzQ4MTEsMC4yMzk4OSAtMC41MzQ4MTEsMC41MzQ4MSAwLDAuMjk1OTggMC4yMzk4ODgsMC41MzQ0NiAwLjUzNDgxMSwwLjUzNDQ2IDAuMjk0OTIyLDAgMC41MzQ0NTgsLTAuMjM4NDggMC41MzQ0NTgsLTAuNTM0NDYgeiIgaWQ9InBhdGgyMjgiLz4mI3hhOyAgICA8cGF0aCBzdHlsZT0iZmlsbDpub25lO3N0cm9rZTojMDAwMDAwO3N0cm9rZS13aWR0aDowLjI4MjIyMjtzdHJva2UtbGluZWNhcDpidXR0O3N0cm9rZS1saW5lam9pbjptaXRlcjtzdHJva2UtbWl0ZXJsaW1pdDo0O3N0cm9rZS1kYXNoYXJyYXk6bm9uZTtzdHJva2Utb3BhY2l0eToxIiBkPSJNIDYzLjY3NTMyNywxNTAuNzc4MyBIIDUzLjgxNjk1MyIgaWQ9InBhdGgyMjkiLz4mI3hhOyAgICA8cGF0aCBzdHlsZT0iZmlsbDpub25lO3N0cm9rZTojMDAwMDAwO3N0cm9rZS13aWR0aDowLjI4MjIyMjtzdHJva2UtbGluZWNhcDpidXR0O3N0cm9rZS1saW5lam9pbjptaXRlcjtzdHJva2UtbWl0ZXJsaW1pdDo0O3N0cm9rZS1kYXNoYXJyYXk6bm9uZTtzdHJva2Utb3BhY2l0eToxIiBkPSJNIDYzLjY3NTMyNywxNzMuODI4NDQgSCA1My44MTY5NTMiIGlkPSJwYXRoMjMwIi8+JiN4YTsgICAgPHBhdGggc3R5bGU9ImZpbGw6bm9uZTtzdHJva2U6IzAwMDAwMDtzdHJva2Utd2lkdGg6MC4yODIyMjI7c3Ryb2tlLWxpbmVjYXA6YnV0dDtzdHJva2UtbGluZWpvaW46bWl0ZXI7c3Ryb2tlLW1pdGVybGltaXQ6NDtzdHJva2UtZGFzaGFycmF5Om5vbmU7c3Ryb2tlLW9wYWNpdHk6MSIgZD0ibSA2NC4yODQ1NzQsMTY4Ljk4MTk4IC0yLjE4ODI4LC0zLjc4OTU0IEggNTQuMTAyMzUiIGlkPSJwYXRoMjMxIi8+JiN4YTsgICAgPHRleHQgc3R5bGU9ImZvbnQtc2l6ZTo0LjIzMzMzcHg7c3Ryb2tlLXdpZHRoOjAuMzUyNzc4IiB5PSI3Mi4xMzMxNzEiIHg9Ii0xNjUuNzA0MTUiIHRyYW5zZm9ybT0icm90YXRlKC05MCkiIHhtbDpzcGFjZT0icHJlc2VydmUiIGlkPSJ0ZXh0MjMxIj48dHNwYW4gaWQ9InRzcGFuMjMxIiB5PSI3Mi4xMzMxNzEiIHg9Ii0xNjUuNzA0MTUgLTE2My4wNzA1NiAtMTYwLjQzNjk3IiBzdHlsZT0iZm9udC12YXJpYW50Om5vcm1hbDtmb250LXdlaWdodDpub3JtYWw7Zm9udC1zaXplOjEwLjUzNDNweDtmb250LWZhbWlseTonVGltZXMgTmV3IFJvbWFuJzt3cml0aW5nLW1vZGU6bHItdGI7ZmlsbDojMDAwMDAwO2ZpbGwtb3BhY2l0eToxO2ZpbGwtcnVsZTpub256ZXJvO3N0cm9rZTpub25lO3N0cm9rZS13aWR0aDowLjM1Mjc3OCI+Li4uPC90c3Bhbj48L3RleHQ+JiN4YTsgICAgPHBhdGggc3R5bGU9ImZpbGw6IzAwMDAwMDtmaWxsLW9wYWNpdHk6MTtmaWxsLXJ1bGU6ZXZlbm9kZDtzdHJva2U6bm9uZTtzdHJva2Utd2lkdGg6MC4zNTI3NzgiIGQ9Im0gNjQuOTY2ODQ3LDE0NS4wNzAzNCAtMC43NjM0MTIsMC4wNTUgdiAwLjE1Njk5IGMgMC4zODQxNzUsMCAwLjQzNTMyOCwwLjAzNDYgMC40MzUzMjgsMC4yODI1NyB2IDEuOTg0MzggYyAwLDAuMjI3NTQgLTAuMDUxMTUsMC42NTcyMiAtMC4zNjkzNTgsMC42NTcyMiAtMC4wMjQ3LDAgLTAuMTQxODE3LDAgLTAuMjcyNjk3LC0wLjA2NiAwLjA3NTQ5LC0wLjAyMDggMC4xNzYzODksLTAuMDg1NCAwLjE3NjM4OSwtMC4yMjE5IDAsLTAuMTMwODggLTAuMDkxMDIsLTAuMjMyODMgLTAuMjMxNzc1LC0wLjIzMjgzIC0wLjE0MTgxNywwIC0wLjIzMjgzNCwwLjEwMTk1IC0wLjIzMjgzNCwwLjIzMjgzIDAsMC4yNTc4OCAwLjI4Mzk4NiwwLjM5ODI5IDAuNTcwNDQyLDAuMzk4MjkgMC4zNzUwMDMsMCAwLjY4NzkxNywtMC4zMTY3OSAwLjY4NzkxNywtMC43NzcxNyB6IiBpZD0icGF0aDI0MyIvPiYjeGE7ICAgIDxwYXRoIHN0eWxlPSJmaWxsOiMwMDAwMDA7ZmlsbC1vcGFjaXR5OjE7ZmlsbC1ydWxlOmV2ZW5vZGQ7c3Ryb2tlOm5vbmU7c3Ryb2tlLXdpZHRoOjAuMzUyNzc4IiBkPSJtIDY0Ljk2Njg0NywxNDQuMjAwNzQgdiAtMC4wMzAzIGwgLTAuMDA1NiwtMC4wMSB2IC0wLjAxNTIgbCAtMC4wMDQyLC0wLjAxIHYgLTAuMDE1MiBsIC0wLjAwNTMsLTAuMDEwOSAtMC4wMDU2LC0wLjAxNTIgLTAuMDA0MiwtMC4wMSAtMC4wMDUzLC0wLjAxIC0wLjAwOTksLTAuMDE1MiAtMC4wMDUzLC0wLjAxMTMgLTAuMDA1NiwtMC4wMSAtMC4wMDk1LC0wLjAxIC0wLjAwOTksLTAuMDExMyAtMC4wMDUzLC0wLjAxIC0wLjAwOTksLTAuMDA2IC0wLjAxMDk0LC0wLjAxIC0wLjAwOTUsLTAuMDEgLTAuMDA5OSwtMC4wMDYgLTAuMDEwOTQsLTAuMDA2IC0wLjAxNTE3LC0wLjAxIC0wLjAwOTUsLTAuMDA1IC0wLjAwOTUsLTAuMDA0IC0wLjAxNTE3LC0wLjAwNiAtMC4wMTEyOSwtMC4wMDUgaCAtMC4wMDk1IGwgLTAuMDE1MTcsLTAuMDA0IGggLTAuMDE1MTcgbCAtMC4wMDk1LC0wLjAwNiBoIC0wLjAzMDM0IGMgLTAuMTQyMTY5LDAgLTAuMjYzMTcyLDAuMTIxMzYgLTAuMjYzMTcyLDAuMjY3NDEgMCwwLjE0MTgyIDAuMTIxMDAzLDAuMjYzMTcgMC4yNjMxNzIsMC4yNjMxNyAwLjE0NjA1LDAgMC4yNjc0MDYsLTAuMTIxMzUgMC4yNjc0MDYsLTAuMjYzMTcgeiIgaWQ9InBhdGgyNDQiLz4mI3hhOyAgICA8cGF0aCBzdHlsZT0iZmlsbDpub25lO3N0cm9rZTojMDAwMDAwO3N0cm9rZS13aWR0aDowLjI4MjIyMjtzdHJva2UtbGluZWNhcDpidXR0O3N0cm9rZS1saW5lam9pbjptaXRlcjtzdHJva2UtbWl0ZXJsaW1pdDo0O3N0cm9rZS1kYXNoYXJyYXk6bm9uZTtzdHJva2Utb3BhY2l0eToxIiBkPSJtIDY1Ljc4ODExMywxNDYuMzU4NyBoIDEuODUzNDk0IHYgNC45NjQ5OSIgaWQ9InBhdGgyNDUiLz4mI3hhOyAgICA8cGF0aCBzdHlsZT0iZmlsbDojMDAwMDAwO2ZpbGwtb3BhY2l0eToxO2ZpbGwtcnVsZTpldmVub2RkO3N0cm9rZTojMDAwMDAwO3N0cm9rZS13aWR0aDowLjI4MjIyMjtzdHJva2UtbGluZWNhcDpidXR0O3N0cm9rZS1saW5lam9pbjptaXRlcjtzdHJva2UtbWl0ZXJsaW1pdDo0O3N0cm9rZS1kYXNoYXJyYXk6bm9uZTtzdHJva2Utb3BhY2l0eToxIiBkPSJtIDY3LjY0MTYwNywxNTIuNjI3NTYgLTEuMTI4ODg4LC0xLjk1NDA0IGggMi4yNTc0MjUgeiIgaWQ9InBhdGgyNDYiLz4mI3hhOyAgICA8cGF0aCBzdHlsZT0iZmlsbDpub25lO3N0cm9rZTojMDAwMDAwO3N0cm9rZS13aWR0aDowLjI4MjIyMjtzdHJva2UtbGluZWNhcDpidXR0O3N0cm9rZS1saW5lam9pbjptaXRlcjtzdHJva2UtbWl0ZXJsaW1pdDo0O3N0cm9rZS1kYXNoYXJyYXk6bm9uZTtzdHJva2Utb3BhY2l0eToxIiBkPSJtIDY3LjU3MTA1MiwxNjYuOTcyOTEgdiAyLjg0NjkyIiBpZD0icGF0aDI0NyIvPiYjeGE7ICAgIDxwYXRoIHN0eWxlPSJmaWxsOiMwMDAwMDA7ZmlsbC1vcGFjaXR5OjE7ZmlsbC1ydWxlOmV2ZW5vZGQ7c3Ryb2tlOiMwMDAwMDA7c3Ryb2tlLXdpZHRoOjAuMjgyMjIyO3N0cm9rZS1saW5lY2FwOmJ1dHQ7c3Ryb2tlLWxpbmVqb2luOm1pdGVyO3N0cm9rZS1taXRlcmxpbWl0OjQ7c3Ryb2tlLWRhc2hhcnJheTpub25lO3N0cm9rZS1vcGFjaXR5OjEiIGQ9Im0gNjcuNTcxMDUyLDE3MS4xMjMzNCAtMS4xMjg1MzYsLTEuOTUyNjIgaCAyLjI1NzQyNSB6IiBpZD0icGF0aDI0OCIvPiYjeGE7ICAgIDxwYXRoIHN0eWxlPSJmaWxsOm5vbmU7c3Ryb2tlOiMwMDAwMDA7c3Ryb2tlLXdpZHRoOjAuNDIzMzMzO3N0cm9rZS1saW5lY2FwOmJ1dHQ7c3Ryb2tlLWxpbmVqb2luOm1pdGVyO3N0cm9rZS1taXRlcmxpbWl0OjQ7c3Ryb2tlLWRhc2hhcnJheTowLjQyMzMzMywgMC44NDY2Njc7c3Ryb2tlLWRhc2hvZmZzZXQ6MDtzdHJva2Utb3BhY2l0eToxIiBkPSJtIDY3LjU3MTA1MiwxNjYuMzk5NjUgdiAtMy4yNzk3OCIgaWQ9InBhdGgyNDkiLz4mI3hhOyAgPC9nPiYjeGE7PC9zdmc+;" vertex="1" parent="1">
          <mxGeometry x="185" y="-30" width="59.66" height="83" as="geometry" />
        </mxCell>
        <mxCell id="OysmFfrSoxLZyFZqwhQm-44" value="" style="shape=image;verticalLabelPosition=bottom;labelBackgroundColor=default;verticalAlign=top;aspect=fixed;imageAspect=0;image=data:image/svg+xml,PHN2ZyB4bWxucz0iaHR0cDovL3d3dy53My5vcmcvMjAwMC9zdmciIGlkPSJzdmcxIiB2ZXJzaW9uPSIxLjEiIHZpZXdCb3g9IjAgMCAyMy40MzE0OTIgMjIuNzc3Mzc5IiBoZWlnaHQ9IjIyLjc3NzM3OG1tIiB3aWR0aD0iMjMuNDMxNDkybW0iPiYjeGE7ICAmI3hhOyAgICAmI3hhOyAgJiN4YTsgIDxkZWZzIGlkPSJkZWZzMSI+JiN4YTsgICAgPG1hcmtlciBzdHlsZT0ib3ZlcmZsb3c6dmlzaWJsZSIgaWQ9IlRyaWFuZ2xlSW5MLTI1LTciIHJlZlg9IjAiIHJlZlk9IjAiIG9yaWVudD0iYXV0byI+JiN4YTsgICAgICA8cGF0aCB0cmFuc2Zvcm09InNjYWxlKC0wLjgpIiBzdHlsZT0iZmlsbDojMjc3ZmVmO2ZpbGwtb3BhY2l0eToxO2ZpbGwtcnVsZTpldmVub2RkO3N0cm9rZTojMjc3ZmVmO3N0cm9rZS13aWR0aDoxcHQ7c3Ryb2tlLW9wYWNpdHk6MSIgZD0iTSA1Ljc3LDAgLTIuODgsNSBWIC01IFoiIGlkPSJwYXRoNDM0NC0xNC0yIi8+JiN4YTsgICAgPC9tYXJrZXI+JiN4YTsgICAgPG1hcmtlciBzdHlsZT0ib3ZlcmZsb3c6dmlzaWJsZSIgaWQ9IlRyaWFuZ2xlSW5MLTI1LTctMSIgcmVmWD0iMCIgcmVmWT0iMCIgb3JpZW50PSJhdXRvIj4mI3hhOyAgICAgIDxwYXRoIHRyYW5zZm9ybT0ic2NhbGUoLTAuOCkiIHN0eWxlPSJmaWxsOiMyNzdmZWY7ZmlsbC1vcGFjaXR5OjE7ZmlsbC1ydWxlOmV2ZW5vZGQ7c3Ryb2tlOiMyNzdmZWY7c3Ryb2tlLXdpZHRoOjFwdDtzdHJva2Utb3BhY2l0eToxIiBkPSJNIDUuNzcsMCAtMi44OCw1IFYgLTUgWiIgaWQ9InBhdGg0MzQ0LTE0LTItNyIvPiYjeGE7ICAgIDwvbWFya2VyPiYjeGE7ICAgIDxtYXJrZXIgc3R5bGU9Im92ZXJmbG93OnZpc2libGUiIGlkPSJUcmlhbmdsZU91dEwtMCIgcmVmWD0iMCIgcmVmWT0iMCIgb3JpZW50PSJhdXRvIj4mI3hhOyAgICAgIDxwYXRoIHRyYW5zZm9ybT0ic2NhbGUoMC44KSIgc3R5bGU9ImZpbGw6IzI3N2ZmZjtmaWxsLW9wYWNpdHk6MTtmaWxsLXJ1bGU6ZXZlbm9kZDtzdHJva2U6IzI3N2ZmZjtzdHJva2Utd2lkdGg6MXB0O3N0cm9rZS1vcGFjaXR5OjEiIGQ9Ik0gNS43NywwIC0yLjg4LDUgViAtNSBaIiBpZD0icGF0aDQzNTMtNyIvPiYjeGE7ICAgIDwvbWFya2VyPiYjeGE7ICA8L2RlZnM+JiN4YTsgIDxnIHRyYW5zZm9ybT0idHJhbnNsYXRlKC04NC4wMzkwMzUsLTYzLjI2OTAxMSkiIGlkPSJsYXllcjEiPiYjeGE7ICAgIDxnIHN0eWxlPSJkaXNwbGF5OmlubGluZSIgaWQ9ImcxNzAyOSIgdHJhbnNmb3JtPSJtYXRyaXgoMC4yODIyMjIyMywwLDAsMC4yODIyMjIyMyw1LjQyNDUyMjEsLTU3LjU3Mjk3NSkiPiYjeGE7ICAgICAgPGcgc3R5bGU9ImRpc3BsYXk6aW5saW5lIiB0cmFuc2Zvcm09InRyYW5zbGF0ZSgtMTguMjY4NTkxLC0zODQuNjkwMjkpIiBpZD0iZzU2MTEiPiYjeGE7ICAgICAgICA8cmVjdCBzdHlsZT0iZmlsbDpub25lO2ZpbGwtb3BhY2l0eToxO3N0cm9rZTojMDAwMDAwO3N0cm9rZS13aWR0aDoyO3N0cm9rZS1saW5lam9pbjpyb3VuZDtzdHJva2UtbWl0ZXJsaW1pdDoxMDtzdHJva2UtZGFzaGFycmF5Om5vbmU7c3Ryb2tlLWRhc2hvZmZzZXQ6MDtzdHJva2Utb3BhY2l0eToxIiBpZD0icmVjdDQxMzYtNyIgd2lkdGg9IjgxLjAyNDk3MSIgaGVpZ2h0PSI3OC43MDcyNDUiIHg9IjI5Ny44MjM5NCIgeT0iODEzLjg3MDU0IiByeT0iOC4wODEyMjA2Ii8+JiN4YTsgICAgICA8L2c+JiN4YTsgICAgICA8ZyBzdHlsZT0iZGlzcGxheTppbmxpbmUiIGlkPSJnMTcyMjciIHRyYW5zZm9ybT0idHJhbnNsYXRlKDY5LjQ5NjQyOCwtMjEuMDAxMDE4KSI+JiN4YTsgICAgICAgIDxwYXRoIHN0eWxlPSJmaWxsOm5vbmU7ZmlsbC1ydWxlOmV2ZW5vZGQ7c3Ryb2tlOiMyNzdmZWY7c3Ryb2tlLXdpZHRoOjE7c3Ryb2tlLWxpbmVjYXA6YnV0dDtzdHJva2UtbGluZWpvaW46bWl0ZXI7c3Ryb2tlLW1pdGVybGltaXQ6NDtzdHJva2UtZGFzaGFycmF5Om5vbmU7c3Ryb2tlLW9wYWNpdHk6MTttYXJrZXItc3RhcnQ6dXJsKCNUcmlhbmdsZUluTC0yNS03LTEpIiBkPSJtIDIxNi43MTEzOSw1MjEuODc1MTIgNTUuNzg3ODMsLTU1Ljc4NzgxIiBpZD0icGF0aDQxNjAtNCIvPiYjeGE7ICAgICAgICA8cGF0aCBzdHlsZT0iZmlsbDpub25lO2ZpbGwtcnVsZTpldmVub2RkO3N0cm9rZTojMjc3ZmZmO3N0cm9rZS13aWR0aDoxcHg7c3Ryb2tlLWxpbmVjYXA6YnV0dDtzdHJva2UtbGluZWpvaW46bWl0ZXI7c3Ryb2tlLW9wYWNpdHk6MSIgZD0ibSAyMjkuNTY2NDgsNDc4LjU4OTE2IDMwLjQzMDg0LDMwLjQzMDg1IiBpZD0icGF0aDQxNjAtOS03Ii8+JiN4YTsgICAgICAgIDxwYXRoIHN0eWxlPSJmaWxsOm5vbmU7ZmlsbC1ydWxlOmV2ZW5vZGQ7c3Ryb2tlOiMyNzdmZmY7c3Ryb2tlLXdpZHRoOjFweDtzdHJva2UtbGluZWNhcDpidXR0O3N0cm9rZS1saW5lam9pbjptaXRlcjtzdHJva2Utb3BhY2l0eToxIiBkPSJtIDIyMC42MDEzNyw0ODcuOTMzMDcgMzAuNDMwODQsMzAuNDMwODUiIGlkPSJwYXRoNDE2MC05LTYtNCIvPiYjeGE7ICAgICAgICA8cGF0aCBzdHlsZT0iZmlsbDpub25lO2ZpbGwtcnVsZTpldmVub2RkO3N0cm9rZTojMjc3ZmZmO3N0cm9rZS13aWR0aDoxcHg7c3Ryb2tlLWxpbmVjYXA6YnV0dDtzdHJva2UtbGluZWpvaW46bWl0ZXI7c3Ryb2tlLW9wYWNpdHk6MSIgZD0ibSAyMTEuNjM2MjcsNDk2Ljc3MTkxIDMwLjQzMDg0LDMwLjQzMDg1IiBpZD0icGF0aDQxNjAtOS02LTUtOCIvPiYjeGE7ICAgICAgPC9nPiYjeGE7ICAgICAgPGcgc3R5bGU9ImRpc3BsYXk6aW5saW5lIiBpZD0iZzE3MDI5LTgiIHRyYW5zZm9ybT0idHJhbnNsYXRlKDExOS40OTY0MywtMjIuMDExMTY5KSI+JiN4YTsgICAgICAgIDxwYXRoIGlkPSJwYXRoMTMyOTAtMi00NCIgZD0ibSAyMTQuOTQ2ODYsNDg3LjQ5NzM0IC01LjY3NDI0LDYuODQ0MTEiIHN0eWxlPSJmaWxsOm5vbmU7c3Ryb2tlOiMwMDAwMDA7c3Ryb2tlLXdpZHRoOjAuOTM1NTY1O3N0cm9rZS1saW5lY2FwOmJ1dHQ7c3Ryb2tlLWxpbmVqb2luOm1pdGVyO3N0cm9rZS1taXRlcmxpbWl0OjQ7c3Ryb2tlLWRhc2hhcnJheTpub25lO3N0cm9rZS1vcGFjaXR5OjEiLz4mI3hhOyAgICAgICAgPHBhdGggaWQ9InBhdGgxMzI5MC0zLTgtNyIgZD0ibSAyMTkuODc3MjYsNDg3LjQ5NzM0IC01LjY3NDIxLDYuODQ0MTEiIHN0eWxlPSJmaWxsOm5vbmU7c3Ryb2tlOiMwMDAwMDA7c3Ryb2tlLXdpZHRoOjAuOTM1NTY1O3N0cm9rZS1saW5lY2FwOmJ1dHQ7c3Ryb2tlLWxpbmVqb2luOm1pdGVyO3N0cm9rZS1taXRlcmxpbWl0OjQ7c3Ryb2tlLWRhc2hhcnJheTpub25lO3N0cm9rZS1vcGFjaXR5OjEiLz4mI3hhOyAgICAgICAgPHBhdGggaWQ9InBhdGgxMzI5MC0zLTItMi05IiBkPSJtIDIyNC44MDc3NCw0ODcuNDk3MzQgLTUuNjc0MjIsNi44NDQxMSIgc3R5bGU9ImZpbGw6bm9uZTtzdHJva2U6IzAwMDAwMDtzdHJva2Utd2lkdGg6MC45MzU1NjU7c3Ryb2tlLWxpbmVjYXA6YnV0dDtzdHJva2UtbGluZWpvaW46bWl0ZXI7c3Ryb2tlLW1pdGVybGltaXQ6NDtzdHJva2UtZGFzaGFycmF5Om5vbmU7c3Ryb2tlLW9wYWNpdHk6MSIvPiYjeGE7ICAgICAgICA8cGF0aCBpZD0icGF0aDEzMjkwLTMtMS00LTYiIGQ9Im0gMjI5LjczODIxLDQ4Ny40OTczNCAtNS42NzQyMSw2Ljg0NDExIiBzdHlsZT0iZmlsbDpub25lO3N0cm9rZTojMDAwMDAwO3N0cm9rZS13aWR0aDowLjkzNTU2NTtzdHJva2UtbGluZWNhcDpidXR0O3N0cm9rZS1saW5lam9pbjptaXRlcjtzdHJva2UtbWl0ZXJsaW1pdDo0O3N0cm9rZS1kYXNoYXJyYXk6bm9uZTtzdHJva2Utb3BhY2l0eToxIi8+JiN4YTsgICAgICAgIDxwYXRoIGlkPSJwYXRoMTMyOTAtMy0yLTgtNS0yMyIgZD0ibSAyMzQuNjY4NjIsNDg3LjQ5NzM0IC01LjY3NDIxLDYuODQ0MTEiIHN0eWxlPSJmaWxsOm5vbmU7c3Ryb2tlOiMwMDAwMDA7c3Ryb2tlLXdpZHRoOjAuOTM1NTY1O3N0cm9rZS1saW5lY2FwOmJ1dHQ7c3Ryb2tlLWxpbmVqb2luOm1pdGVyO3N0cm9rZS1taXRlcmxpbWl0OjQ7c3Ryb2tlLWRhc2hhcnJheTpub25lO3N0cm9rZS1vcGFjaXR5OjEiLz4mI3hhOyAgICAgICAgPHBhdGggaWQ9InBhdGg1NTc2LTgtNC0yNCIgZD0ibSAyMjQuNzI2OTksNDg1LjI5OTM2IHYgLTMxLjYxODc4IDE4LjExMjc2IGwgMTAuNTc0NTcsLTE4LjMyMjE5IC0xMC41NzQ1NywxOC4zMjIxOSAtMTAuNDY5NzcsLTE4LjAwODEiIHN0eWxlPSJmaWxsOm5vbmU7c3Ryb2tlOiMwMDAwMDA7c3Ryb2tlLXdpZHRoOjMuNjY0NTM7c3Ryb2tlLWxpbmVjYXA6YnV0dDtzdHJva2UtbGluZWpvaW46bWl0ZXI7c3Ryb2tlLW1pdGVybGltaXQ6NDtzdHJva2UtZGFzaGFycmF5Om5vbmU7c3Ryb2tlLW9wYWNpdHk6MSIvPiYjeGE7ICAgICAgICA8cGF0aCBzdHlsZT0iZmlsbDpub25lO2ZpbGwtcnVsZTpldmVub2RkO3N0cm9rZTojMDAwMDAwO3N0cm9rZS13aWR0aDozLjY2NDUzO3N0cm9rZS1saW5lY2FwOmJ1dHQ7c3Ryb2tlLWxpbmVqb2luOm1pdGVyO3N0cm9rZS1taXRlcmxpbWl0OjQ7c3Ryb2tlLWRhc2hhcnJheTpub25lO3N0cm9rZS1vcGFjaXR5OjEiIGQ9Im0gMjE0LjU0MjM0LDQ4NS45ODE5IGggMjAuNDc3MDQiIGlkPSJwYXRoNTY0NS03LTUiLz4mI3hhOyAgICAgICAgPHBhdGggc3R5bGU9ImZpbGw6bm9uZTtmaWxsLXJ1bGU6ZXZlbm9kZDtzdHJva2U6IzI3N2ZmZjtzdHJva2Utd2lkdGg6MTtzdHJva2UtbGluZWNhcDpidXR0O3N0cm9rZS1saW5lam9pbjptaXRlcjtzdHJva2UtbWl0ZXJsaW1pdDo0O3N0cm9rZS1kYXNoYXJyYXk6bm9uZTtzdHJva2Utb3BhY2l0eToxO21hcmtlci1lbmQ6dXJsKCNUcmlhbmdsZU91dEwtMCkiIGQ9Im0gMjI0Ljc4MDg1LDQ4MS40MzcxNSB2IC0yLjY3MTE0IiBpZD0icGF0aDUzOTAtMCIvPiYjeGE7ICAgICAgPC9nPiYjeGE7ICAgIDwvZz4mI3hhOyAgPC9nPiYjeGE7PC9zdmc+;" vertex="1" parent="1">
          <mxGeometry x="75" y="-68" width="32" height="32" as="geometry" />
        </mxCell>
        <mxCell id="OysmFfrSoxLZyFZqwhQm-74" value="" style="group" vertex="1" connectable="0" parent="1">
          <mxGeometry x="3" y="-12" width="90.70000000000002" height="92" as="geometry" />
        </mxCell>
        <mxCell id="OysmFfrSoxLZyFZqwhQm-45" value="" style="shape=image;verticalLabelPosition=bottom;labelBackgroundColor=default;verticalAlign=top;aspect=fixed;imageAspect=0;image=data:image/svg+xml,PHN2ZyB4bWxucz0iaHR0cDovL3d3dy53My5vcmcvMjAwMC9zdmciIGlkPSJzdmcxIiB2ZXJzaW9uPSIxLjEiIHZpZXdCb3g9IjAgMCAxNC40Nzc0NzYgMTQuMDc5NDc5IiBoZWlnaHQ9IjE0LjA3OTQ3OW1tIiB3aWR0aD0iMTQuNDc3NDc2bW0iPiYjeGE7ICAmI3hhOyAgPGRlZnMgaWQ9ImRlZnMxIj4mI3hhOyAgICA8bWFya2VyIHN0eWxlPSJvdmVyZmxvdzp2aXNpYmxlIiBpZD0iVHJpYW5nbGVPdXRMLTYtMi0zLTEtOCIgcmVmWD0iMCIgcmVmWT0iMCIgb3JpZW50PSJhdXRvIj4mI3hhOyAgICAgIDxwYXRoIHRyYW5zZm9ybT0ic2NhbGUoMC44KSIgc3R5bGU9ImZpbGw6I2ZmMDAwMDtmaWxsLW9wYWNpdHk6MTtmaWxsLXJ1bGU6ZXZlbm9kZDtzdHJva2U6I2ZmMDAwMDtzdHJva2Utd2lkdGg6MXB0O3N0cm9rZS1vcGFjaXR5OjEiIGQ9Ik0gNS43NywwIC0yLjg4LDUgViAtNSBaIiBpZD0icGF0aDQzNTMtOS0wLTAtNiIvPiYjeGE7ICAgIDwvbWFya2VyPiYjeGE7ICAgIDxtYXJrZXIgc3R5bGU9Im92ZXJmbG93OnZpc2libGUiIGlkPSJUcmlhbmdsZU91dEwtNi0yLTMxIiByZWZYPSIwIiByZWZZPSIwIiBvcmllbnQ9ImF1dG8iPiYjeGE7ICAgICAgPHBhdGggdHJhbnNmb3JtPSJzY2FsZSgwLjgpIiBzdHlsZT0iZmlsbDojZmYwMDAwO2ZpbGwtb3BhY2l0eToxO2ZpbGwtcnVsZTpldmVub2RkO3N0cm9rZTojZmYwMDAwO3N0cm9rZS13aWR0aDoxcHQ7c3Ryb2tlLW9wYWNpdHk6MSIgZD0iTSA1Ljc3LDAgLTIuODgsNSBWIC01IFoiIGlkPSJwYXRoNDM1My05LTAtNSIvPiYjeGE7ICAgIDwvbWFya2VyPiYjeGE7ICA8L2RlZnM+JiN4YTsgIDxnIHRyYW5zZm9ybT0idHJhbnNsYXRlKC0xNTcuNjkxNjYsLTE3NS40MTg3NSkiIGlkPSJsYXllcjEiPiYjeGE7ICAgIDxnIHN0eWxlPSJkaXNwbGF5OmlubGluZSIgaWQ9Imc2OTk1IiB0cmFuc2Zvcm09Im1hdHJpeCgwLjI4MjIyMjIzLDAsMCwwLjI4MjIyMjIzLDEyMC4zMTM0OCwtODcuNTE2NzkzKSI+JiN4YTsgICAgICA8ZyBpZD0iZzYzNzEtNSIgdHJhbnNmb3JtPSJ0cmFuc2xhdGUoODYuNzE2MTYyLDc2MC42NzE2NykiPiYjeGE7ICAgICAgICA8cmVjdCByeT0iOC4wODEyMjA2IiB5PSIxNzEuOTg5NjkiIHg9IjQ2LjcyNjIwOCIgaGVpZ2h0PSI0Ny44ODc5MTciIHdpZHRoPSI0OS4yOTgxNDEiIGlkPSJyZWN0NDEzNi05LTIiIHN0eWxlPSJmaWxsOm5vbmU7ZmlsbC1vcGFjaXR5OjE7c3Ryb2tlOiMwMDAwMDA7c3Ryb2tlLXdpZHRoOjI7c3Ryb2tlLWxpbmVqb2luOnJvdW5kO3N0cm9rZS1taXRlcmxpbWl0OjEwO3N0cm9rZS1kYXNoYXJyYXk6bm9uZTtzdHJva2UtZGFzaG9mZnNldDowO3N0cm9rZS1vcGFjaXR5OjEiLz4mI3hhOyAgICAgICAgPGcgaWQ9Imc2MzYxLTMiPiYjeGE7ICAgICAgICAgIDxwYXRoIGlkPSJwYXRoMTMyOTAtMi00LTciIGQ9Im0gNjEuNTQxMjg3LDIwOS44MzMzNCAtNS42NzQyNCw2Ljg0NDExIiBzdHlsZT0iZmlsbDpub25lO3N0cm9rZTojMDAwMDAwO3N0cm9rZS13aWR0aDowLjkzNTU2NTtzdHJva2UtbGluZWNhcDpidXR0O3N0cm9rZS1saW5lam9pbjptaXRlcjtzdHJva2UtbWl0ZXJsaW1pdDo0O3N0cm9rZS1kYXNoYXJyYXk6bm9uZTtzdHJva2Utb3BhY2l0eToxIi8+JiN4YTsgICAgICAgICAgPHBhdGggaWQ9InBhdGgxMzI5MC0zLTgtNC0zIiBkPSJtIDY2LjQ3MTY4NywyMDkuODMzMzQgLTUuNjc0MjEsNi44NDQxMSIgc3R5bGU9ImZpbGw6bm9uZTtzdHJva2U6IzAwMDAwMDtzdHJva2Utd2lkdGg6MC45MzU1NjU7c3Ryb2tlLWxpbmVjYXA6YnV0dDtzdHJva2UtbGluZWpvaW46bWl0ZXI7c3Ryb2tlLW1pdGVybGltaXQ6NDtzdHJva2UtZGFzaGFycmF5Om5vbmU7c3Ryb2tlLW9wYWNpdHk6MSIvPiYjeGE7ICAgICAgICAgIDxwYXRoIGlkPSJwYXRoMTMyOTAtMy0yLTItNC02IiBkPSJtIDcxLjQwMjE2NywyMDkuODMzMzQgLTUuNjc0MjIsNi44NDQxMSIgc3R5bGU9ImZpbGw6bm9uZTtzdHJva2U6IzAwMDAwMDtzdHJva2Utd2lkdGg6MC45MzU1NjU7c3Ryb2tlLWxpbmVjYXA6YnV0dDtzdHJva2UtbGluZWpvaW46bWl0ZXI7c3Ryb2tlLW1pdGVybGltaXQ6NDtzdHJva2UtZGFzaGFycmF5Om5vbmU7c3Ryb2tlLW9wYWNpdHk6MSIvPiYjeGE7ICAgICAgICAgIDxwYXRoIGlkPSJwYXRoMTMyOTAtMy0xLTQtMi0zIiBkPSJtIDc2LjMzMjYzNywyMDkuODMzMzQgLTUuNjc0MjEsNi44NDQxMSIgc3R5bGU9ImZpbGw6bm9uZTtzdHJva2U6IzAwMDAwMDtzdHJva2Utd2lkdGg6MC45MzU1NjU7c3Ryb2tlLWxpbmVjYXA6YnV0dDtzdHJva2UtbGluZWpvaW46bWl0ZXI7c3Ryb2tlLW1pdGVybGltaXQ6NDtzdHJva2UtZGFzaGFycmF5Om5vbmU7c3Ryb2tlLW9wYWNpdHk6MSIvPiYjeGE7ICAgICAgICAgIDxwYXRoIGlkPSJwYXRoMTMyOTAtMy0yLTgtNS0yLTMiIGQ9Im0gODEuMjYzMDQ3LDIwOS44MzMzNCAtNS42NzQyMSw2Ljg0NDExIiBzdHlsZT0iZmlsbDpub25lO3N0cm9rZTojMDAwMDAwO3N0cm9rZS13aWR0aDowLjkzNTU2NTtzdHJva2UtbGluZWNhcDpidXR0O3N0cm9rZS1saW5lam9pbjptaXRlcjtzdHJva2UtbWl0ZXJsaW1pdDo0O3N0cm9rZS1kYXNoYXJyYXk6bm9uZTtzdHJva2Utb3BhY2l0eToxIi8+JiN4YTsgICAgICAgICAgPHBhdGggaWQ9InBhdGg1NTc2LTgtNC0yLTgiIGQ9Im0gNzEuMzIxNDE3LDIwNy42MzUzNiB2IC0zMS42MTg3OCAxOC4xMTI3NiBsIDEwLjU3NDU3LC0xOC4zMjIxOSAtMTAuNTc0NTcsMTguMzIyMTkgLTEwLjQ2OTc3LC0xOC4wMDgxIiBzdHlsZT0iZmlsbDpub25lO3N0cm9rZTojMDAwMDAwO3N0cm9rZS13aWR0aDozLjY2NDUzO3N0cm9rZS1saW5lY2FwOmJ1dHQ7c3Ryb2tlLWxpbmVqb2luOm1pdGVyO3N0cm9rZS1taXRlcmxpbWl0OjQ7c3Ryb2tlLWRhc2hhcnJheTpub25lO3N0cm9rZS1vcGFjaXR5OjEiLz4mI3hhOyAgICAgICAgICA8cGF0aCBzdHlsZT0iZmlsbDpub25lO2ZpbGwtcnVsZTpldmVub2RkO3N0cm9rZTojMDAwMDAwO3N0cm9rZS13aWR0aDozLjY2NDUzO3N0cm9rZS1saW5lY2FwOmJ1dHQ7c3Ryb2tlLWxpbmVqb2luOm1pdGVyO3N0cm9rZS1taXRlcmxpbWl0OjQ7c3Ryb2tlLWRhc2hhcnJheTpub25lO3N0cm9rZS1vcGFjaXR5OjEiIGQ9Im0gNjEuMTM2NzY3LDIwOC4zMTc5IGggMjAuNDc3MDQiIGlkPSJwYXRoNTY0NS03LTItMSIvPiYjeGE7ICAgICAgICAgIDxwYXRoIHN0eWxlPSJmaWxsOm5vbmU7ZmlsbC1ydWxlOmV2ZW5vZGQ7c3Ryb2tlOiNmZjAwMDA7c3Ryb2tlLXdpZHRoOjE7c3Ryb2tlLWxpbmVjYXA6YnV0dDtzdHJva2UtbGluZWpvaW46bWl0ZXI7c3Ryb2tlLW1pdGVybGltaXQ6NDtzdHJva2UtZGFzaGFycmF5Om5vbmU7c3Ryb2tlLW9wYWNpdHk6MTttYXJrZXItZW5kOnVybCgjVHJpYW5nbGVPdXRMLTYtMi0zMSkiIGQ9Im0gNzEuMzc1Mjc3LDE5NS42MTk3NiB2IDIuNjcxMTQiIGlkPSJwYXRoNTM5MC03LTgiLz4mI3hhOyAgICAgICAgPC9nPiYjeGE7ICAgICAgPC9nPiYjeGE7ICAgIDwvZz4mI3hhOyAgPC9nPiYjeGE7PC9zdmc+;" vertex="1" parent="OysmFfrSoxLZyFZqwhQm-74">
          <mxGeometry x="42.00000000000001" y="76" width="16" height="16" as="geometry" />
        </mxCell>
        <mxCell id="OysmFfrSoxLZyFZqwhQm-53" value="" style="shape=image;verticalLabelPosition=bottom;labelBackgroundColor=default;verticalAlign=top;aspect=fixed;imageAspect=0;image=data:image/svg+xml,PHN2ZyB4bWxucz0iaHR0cDovL3d3dy53My5vcmcvMjAwMC9zdmciIGlkPSJzdmcxIiB2ZXJzaW9uPSIxLjEiIHZpZXdCb3g9IjAgMCAxNC40Nzc0NzYgMTQuMDc5NDc5IiBoZWlnaHQ9IjE0LjA3OTQ3OW1tIiB3aWR0aD0iMTQuNDc3NDc2bW0iPiYjeGE7ICAmI3hhOyAgPGRlZnMgaWQ9ImRlZnMxIj4mI3hhOyAgICA8bWFya2VyIHN0eWxlPSJvdmVyZmxvdzp2aXNpYmxlIiBpZD0iVHJpYW5nbGVPdXRMLTYtMi0zLTEtOCIgcmVmWD0iMCIgcmVmWT0iMCIgb3JpZW50PSJhdXRvIj4mI3hhOyAgICAgIDxwYXRoIHRyYW5zZm9ybT0ic2NhbGUoMC44KSIgc3R5bGU9ImZpbGw6I2ZmMDAwMDtmaWxsLW9wYWNpdHk6MTtmaWxsLXJ1bGU6ZXZlbm9kZDtzdHJva2U6I2ZmMDAwMDtzdHJva2Utd2lkdGg6MXB0O3N0cm9rZS1vcGFjaXR5OjEiIGQ9Ik0gNS43NywwIC0yLjg4LDUgViAtNSBaIiBpZD0icGF0aDQzNTMtOS0wLTAtNiIvPiYjeGE7ICAgIDwvbWFya2VyPiYjeGE7ICAgIDxtYXJrZXIgc3R5bGU9Im92ZXJmbG93OnZpc2libGUiIGlkPSJUcmlhbmdsZU91dEwtNi0yLTMxIiByZWZYPSIwIiByZWZZPSIwIiBvcmllbnQ9ImF1dG8iPiYjeGE7ICAgICAgPHBhdGggdHJhbnNmb3JtPSJzY2FsZSgwLjgpIiBzdHlsZT0iZmlsbDojZmYwMDAwO2ZpbGwtb3BhY2l0eToxO2ZpbGwtcnVsZTpldmVub2RkO3N0cm9rZTojZmYwMDAwO3N0cm9rZS13aWR0aDoxcHQ7c3Ryb2tlLW9wYWNpdHk6MSIgZD0iTSA1Ljc3LDAgLTIuODgsNSBWIC01IFoiIGlkPSJwYXRoNDM1My05LTAtNSIvPiYjeGE7ICAgIDwvbWFya2VyPiYjeGE7ICA8L2RlZnM+JiN4YTsgIDxnIHRyYW5zZm9ybT0idHJhbnNsYXRlKC0xNTcuNjkxNjYsLTE3NS40MTg3NSkiIGlkPSJsYXllcjEiPiYjeGE7ICAgIDxnIHN0eWxlPSJkaXNwbGF5OmlubGluZSIgaWQ9Imc2OTk1IiB0cmFuc2Zvcm09Im1hdHJpeCgwLjI4MjIyMjIzLDAsMCwwLjI4MjIyMjIzLDEyMC4zMTM0OCwtODcuNTE2NzkzKSI+JiN4YTsgICAgICA8ZyBpZD0iZzYzNzEtNSIgdHJhbnNmb3JtPSJ0cmFuc2xhdGUoODYuNzE2MTYyLDc2MC42NzE2NykiPiYjeGE7ICAgICAgICA8cmVjdCByeT0iOC4wODEyMjA2IiB5PSIxNzEuOTg5NjkiIHg9IjQ2LjcyNjIwOCIgaGVpZ2h0PSI0Ny44ODc5MTciIHdpZHRoPSI0OS4yOTgxNDEiIGlkPSJyZWN0NDEzNi05LTIiIHN0eWxlPSJmaWxsOm5vbmU7ZmlsbC1vcGFjaXR5OjE7c3Ryb2tlOiMwMDAwMDA7c3Ryb2tlLXdpZHRoOjI7c3Ryb2tlLWxpbmVqb2luOnJvdW5kO3N0cm9rZS1taXRlcmxpbWl0OjEwO3N0cm9rZS1kYXNoYXJyYXk6bm9uZTtzdHJva2UtZGFzaG9mZnNldDowO3N0cm9rZS1vcGFjaXR5OjEiLz4mI3hhOyAgICAgICAgPGcgaWQ9Imc2MzYxLTMiPiYjeGE7ICAgICAgICAgIDxwYXRoIGlkPSJwYXRoMTMyOTAtMi00LTciIGQ9Im0gNjEuNTQxMjg3LDIwOS44MzMzNCAtNS42NzQyNCw2Ljg0NDExIiBzdHlsZT0iZmlsbDpub25lO3N0cm9rZTojMDAwMDAwO3N0cm9rZS13aWR0aDowLjkzNTU2NTtzdHJva2UtbGluZWNhcDpidXR0O3N0cm9rZS1saW5lam9pbjptaXRlcjtzdHJva2UtbWl0ZXJsaW1pdDo0O3N0cm9rZS1kYXNoYXJyYXk6bm9uZTtzdHJva2Utb3BhY2l0eToxIi8+JiN4YTsgICAgICAgICAgPHBhdGggaWQ9InBhdGgxMzI5MC0zLTgtNC0zIiBkPSJtIDY2LjQ3MTY4NywyMDkuODMzMzQgLTUuNjc0MjEsNi44NDQxMSIgc3R5bGU9ImZpbGw6bm9uZTtzdHJva2U6IzAwMDAwMDtzdHJva2Utd2lkdGg6MC45MzU1NjU7c3Ryb2tlLWxpbmVjYXA6YnV0dDtzdHJva2UtbGluZWpvaW46bWl0ZXI7c3Ryb2tlLW1pdGVybGltaXQ6NDtzdHJva2UtZGFzaGFycmF5Om5vbmU7c3Ryb2tlLW9wYWNpdHk6MSIvPiYjeGE7ICAgICAgICAgIDxwYXRoIGlkPSJwYXRoMTMyOTAtMy0yLTItNC02IiBkPSJtIDcxLjQwMjE2NywyMDkuODMzMzQgLTUuNjc0MjIsNi44NDQxMSIgc3R5bGU9ImZpbGw6bm9uZTtzdHJva2U6IzAwMDAwMDtzdHJva2Utd2lkdGg6MC45MzU1NjU7c3Ryb2tlLWxpbmVjYXA6YnV0dDtzdHJva2UtbGluZWpvaW46bWl0ZXI7c3Ryb2tlLW1pdGVybGltaXQ6NDtzdHJva2UtZGFzaGFycmF5Om5vbmU7c3Ryb2tlLW9wYWNpdHk6MSIvPiYjeGE7ICAgICAgICAgIDxwYXRoIGlkPSJwYXRoMTMyOTAtMy0xLTQtMi0zIiBkPSJtIDc2LjMzMjYzNywyMDkuODMzMzQgLTUuNjc0MjEsNi44NDQxMSIgc3R5bGU9ImZpbGw6bm9uZTtzdHJva2U6IzAwMDAwMDtzdHJva2Utd2lkdGg6MC45MzU1NjU7c3Ryb2tlLWxpbmVjYXA6YnV0dDtzdHJva2UtbGluZWpvaW46bWl0ZXI7c3Ryb2tlLW1pdGVybGltaXQ6NDtzdHJva2UtZGFzaGFycmF5Om5vbmU7c3Ryb2tlLW9wYWNpdHk6MSIvPiYjeGE7ICAgICAgICAgIDxwYXRoIGlkPSJwYXRoMTMyOTAtMy0yLTgtNS0yLTMiIGQ9Im0gODEuMjYzMDQ3LDIwOS44MzMzNCAtNS42NzQyMSw2Ljg0NDExIiBzdHlsZT0iZmlsbDpub25lO3N0cm9rZTojMDAwMDAwO3N0cm9rZS13aWR0aDowLjkzNTU2NTtzdHJva2UtbGluZWNhcDpidXR0O3N0cm9rZS1saW5lam9pbjptaXRlcjtzdHJva2UtbWl0ZXJsaW1pdDo0O3N0cm9rZS1kYXNoYXJyYXk6bm9uZTtzdHJva2Utb3BhY2l0eToxIi8+JiN4YTsgICAgICAgICAgPHBhdGggaWQ9InBhdGg1NTc2LTgtNC0yLTgiIGQ9Im0gNzEuMzIxNDE3LDIwNy42MzUzNiB2IC0zMS42MTg3OCAxOC4xMTI3NiBsIDEwLjU3NDU3LC0xOC4zMjIxOSAtMTAuNTc0NTcsMTguMzIyMTkgLTEwLjQ2OTc3LC0xOC4wMDgxIiBzdHlsZT0iZmlsbDpub25lO3N0cm9rZTojMDAwMDAwO3N0cm9rZS13aWR0aDozLjY2NDUzO3N0cm9rZS1saW5lY2FwOmJ1dHQ7c3Ryb2tlLWxpbmVqb2luOm1pdGVyO3N0cm9rZS1taXRlcmxpbWl0OjQ7c3Ryb2tlLWRhc2hhcnJheTpub25lO3N0cm9rZS1vcGFjaXR5OjEiLz4mI3hhOyAgICAgICAgICA8cGF0aCBzdHlsZT0iZmlsbDpub25lO2ZpbGwtcnVsZTpldmVub2RkO3N0cm9rZTojMDAwMDAwO3N0cm9rZS13aWR0aDozLjY2NDUzO3N0cm9rZS1saW5lY2FwOmJ1dHQ7c3Ryb2tlLWxpbmVqb2luOm1pdGVyO3N0cm9rZS1taXRlcmxpbWl0OjQ7c3Ryb2tlLWRhc2hhcnJheTpub25lO3N0cm9rZS1vcGFjaXR5OjEiIGQ9Im0gNjEuMTM2NzY3LDIwOC4zMTc5IGggMjAuNDc3MDQiIGlkPSJwYXRoNTY0NS03LTItMSIvPiYjeGE7ICAgICAgICAgIDxwYXRoIHN0eWxlPSJmaWxsOm5vbmU7ZmlsbC1ydWxlOmV2ZW5vZGQ7c3Ryb2tlOiNmZjAwMDA7c3Ryb2tlLXdpZHRoOjE7c3Ryb2tlLWxpbmVjYXA6YnV0dDtzdHJva2UtbGluZWpvaW46bWl0ZXI7c3Ryb2tlLW1pdGVybGltaXQ6NDtzdHJva2UtZGFzaGFycmF5Om5vbmU7c3Ryb2tlLW9wYWNpdHk6MTttYXJrZXItZW5kOnVybCgjVHJpYW5nbGVPdXRMLTYtMi0zMSkiIGQ9Im0gNzEuMzc1Mjc3LDE5NS42MTk3NiB2IDIuNjcxMTQiIGlkPSJwYXRoNTM5MC03LTgiLz4mI3hhOyAgICAgICAgPC9nPiYjeGE7ICAgICAgPC9nPiYjeGE7ICAgIDwvZz4mI3hhOyAgPC9nPiYjeGE7PC9zdmc+;" vertex="1" parent="OysmFfrSoxLZyFZqwhQm-74">
          <mxGeometry x="42.00000000000001" width="16" height="16" as="geometry" />
        </mxCell>
        <mxCell id="OysmFfrSoxLZyFZqwhQm-57" value="" style="shape=image;verticalLabelPosition=bottom;labelBackgroundColor=default;verticalAlign=top;aspect=fixed;imageAspect=0;image=data:image/svg+xml,PHN2ZyB4bWxucz0iaHR0cDovL3d3dy53My5vcmcvMjAwMC9zdmciIGlkPSJzdmcxIiB2ZXJzaW9uPSIxLjEiIHZpZXdCb3g9IjAgMCAxNC40Nzc0NzYgMTQuMDc5NDc5IiBoZWlnaHQ9IjE0LjA3OTQ3OW1tIiB3aWR0aD0iMTQuNDc3NDc2bW0iPiYjeGE7ICAmI3hhOyAgPGRlZnMgaWQ9ImRlZnMxIj4mI3hhOyAgICA8bWFya2VyIHN0eWxlPSJvdmVyZmxvdzp2aXNpYmxlIiBpZD0iVHJpYW5nbGVPdXRMLTYtMi0zLTEtOCIgcmVmWD0iMCIgcmVmWT0iMCIgb3JpZW50PSJhdXRvIj4mI3hhOyAgICAgIDxwYXRoIHRyYW5zZm9ybT0ic2NhbGUoMC44KSIgc3R5bGU9ImZpbGw6I2ZmMDAwMDtmaWxsLW9wYWNpdHk6MTtmaWxsLXJ1bGU6ZXZlbm9kZDtzdHJva2U6I2ZmMDAwMDtzdHJva2Utd2lkdGg6MXB0O3N0cm9rZS1vcGFjaXR5OjEiIGQ9Ik0gNS43NywwIC0yLjg4LDUgViAtNSBaIiBpZD0icGF0aDQzNTMtOS0wLTAtNiIvPiYjeGE7ICAgIDwvbWFya2VyPiYjeGE7ICAgIDxtYXJrZXIgc3R5bGU9Im92ZXJmbG93OnZpc2libGUiIGlkPSJUcmlhbmdsZU91dEwtNi0yLTMxIiByZWZYPSIwIiByZWZZPSIwIiBvcmllbnQ9ImF1dG8iPiYjeGE7ICAgICAgPHBhdGggdHJhbnNmb3JtPSJzY2FsZSgwLjgpIiBzdHlsZT0iZmlsbDojZmYwMDAwO2ZpbGwtb3BhY2l0eToxO2ZpbGwtcnVsZTpldmVub2RkO3N0cm9rZTojZmYwMDAwO3N0cm9rZS13aWR0aDoxcHQ7c3Ryb2tlLW9wYWNpdHk6MSIgZD0iTSA1Ljc3LDAgLTIuODgsNSBWIC01IFoiIGlkPSJwYXRoNDM1My05LTAtNSIvPiYjeGE7ICAgIDwvbWFya2VyPiYjeGE7ICA8L2RlZnM+JiN4YTsgIDxnIHRyYW5zZm9ybT0idHJhbnNsYXRlKC0xNTcuNjkxNjYsLTE3NS40MTg3NSkiIGlkPSJsYXllcjEiPiYjeGE7ICAgIDxnIHN0eWxlPSJkaXNwbGF5OmlubGluZSIgaWQ9Imc2OTk1IiB0cmFuc2Zvcm09Im1hdHJpeCgwLjI4MjIyMjIzLDAsMCwwLjI4MjIyMjIzLDEyMC4zMTM0OCwtODcuNTE2NzkzKSI+JiN4YTsgICAgICA8ZyBpZD0iZzYzNzEtNSIgdHJhbnNmb3JtPSJ0cmFuc2xhdGUoODYuNzE2MTYyLDc2MC42NzE2NykiPiYjeGE7ICAgICAgICA8cmVjdCByeT0iOC4wODEyMjA2IiB5PSIxNzEuOTg5NjkiIHg9IjQ2LjcyNjIwOCIgaGVpZ2h0PSI0Ny44ODc5MTciIHdpZHRoPSI0OS4yOTgxNDEiIGlkPSJyZWN0NDEzNi05LTIiIHN0eWxlPSJmaWxsOm5vbmU7ZmlsbC1vcGFjaXR5OjE7c3Ryb2tlOiMwMDAwMDA7c3Ryb2tlLXdpZHRoOjI7c3Ryb2tlLWxpbmVqb2luOnJvdW5kO3N0cm9rZS1taXRlcmxpbWl0OjEwO3N0cm9rZS1kYXNoYXJyYXk6bm9uZTtzdHJva2UtZGFzaG9mZnNldDowO3N0cm9rZS1vcGFjaXR5OjEiLz4mI3hhOyAgICAgICAgPGcgaWQ9Imc2MzYxLTMiPiYjeGE7ICAgICAgICAgIDxwYXRoIGlkPSJwYXRoMTMyOTAtMi00LTciIGQ9Im0gNjEuNTQxMjg3LDIwOS44MzMzNCAtNS42NzQyNCw2Ljg0NDExIiBzdHlsZT0iZmlsbDpub25lO3N0cm9rZTojMDAwMDAwO3N0cm9rZS13aWR0aDowLjkzNTU2NTtzdHJva2UtbGluZWNhcDpidXR0O3N0cm9rZS1saW5lam9pbjptaXRlcjtzdHJva2UtbWl0ZXJsaW1pdDo0O3N0cm9rZS1kYXNoYXJyYXk6bm9uZTtzdHJva2Utb3BhY2l0eToxIi8+JiN4YTsgICAgICAgICAgPHBhdGggaWQ9InBhdGgxMzI5MC0zLTgtNC0zIiBkPSJtIDY2LjQ3MTY4NywyMDkuODMzMzQgLTUuNjc0MjEsNi44NDQxMSIgc3R5bGU9ImZpbGw6bm9uZTtzdHJva2U6IzAwMDAwMDtzdHJva2Utd2lkdGg6MC45MzU1NjU7c3Ryb2tlLWxpbmVjYXA6YnV0dDtzdHJva2UtbGluZWpvaW46bWl0ZXI7c3Ryb2tlLW1pdGVybGltaXQ6NDtzdHJva2UtZGFzaGFycmF5Om5vbmU7c3Ryb2tlLW9wYWNpdHk6MSIvPiYjeGE7ICAgICAgICAgIDxwYXRoIGlkPSJwYXRoMTMyOTAtMy0yLTItNC02IiBkPSJtIDcxLjQwMjE2NywyMDkuODMzMzQgLTUuNjc0MjIsNi44NDQxMSIgc3R5bGU9ImZpbGw6bm9uZTtzdHJva2U6IzAwMDAwMDtzdHJva2Utd2lkdGg6MC45MzU1NjU7c3Ryb2tlLWxpbmVjYXA6YnV0dDtzdHJva2UtbGluZWpvaW46bWl0ZXI7c3Ryb2tlLW1pdGVybGltaXQ6NDtzdHJva2UtZGFzaGFycmF5Om5vbmU7c3Ryb2tlLW9wYWNpdHk6MSIvPiYjeGE7ICAgICAgICAgIDxwYXRoIGlkPSJwYXRoMTMyOTAtMy0xLTQtMi0zIiBkPSJtIDc2LjMzMjYzNywyMDkuODMzMzQgLTUuNjc0MjEsNi44NDQxMSIgc3R5bGU9ImZpbGw6bm9uZTtzdHJva2U6IzAwMDAwMDtzdHJva2Utd2lkdGg6MC45MzU1NjU7c3Ryb2tlLWxpbmVjYXA6YnV0dDtzdHJva2UtbGluZWpvaW46bWl0ZXI7c3Ryb2tlLW1pdGVybGltaXQ6NDtzdHJva2UtZGFzaGFycmF5Om5vbmU7c3Ryb2tlLW9wYWNpdHk6MSIvPiYjeGE7ICAgICAgICAgIDxwYXRoIGlkPSJwYXRoMTMyOTAtMy0yLTgtNS0yLTMiIGQ9Im0gODEuMjYzMDQ3LDIwOS44MzMzNCAtNS42NzQyMSw2Ljg0NDExIiBzdHlsZT0iZmlsbDpub25lO3N0cm9rZTojMDAwMDAwO3N0cm9rZS13aWR0aDowLjkzNTU2NTtzdHJva2UtbGluZWNhcDpidXR0O3N0cm9rZS1saW5lam9pbjptaXRlcjtzdHJva2UtbWl0ZXJsaW1pdDo0O3N0cm9rZS1kYXNoYXJyYXk6bm9uZTtzdHJva2Utb3BhY2l0eToxIi8+JiN4YTsgICAgICAgICAgPHBhdGggaWQ9InBhdGg1NTc2LTgtNC0yLTgiIGQ9Im0gNzEuMzIxNDE3LDIwNy42MzUzNiB2IC0zMS42MTg3OCAxOC4xMTI3NiBsIDEwLjU3NDU3LC0xOC4zMjIxOSAtMTAuNTc0NTcsMTguMzIyMTkgLTEwLjQ2OTc3LC0xOC4wMDgxIiBzdHlsZT0iZmlsbDpub25lO3N0cm9rZTojMDAwMDAwO3N0cm9rZS13aWR0aDozLjY2NDUzO3N0cm9rZS1saW5lY2FwOmJ1dHQ7c3Ryb2tlLWxpbmVqb2luOm1pdGVyO3N0cm9rZS1taXRlcmxpbWl0OjQ7c3Ryb2tlLWRhc2hhcnJheTpub25lO3N0cm9rZS1vcGFjaXR5OjEiLz4mI3hhOyAgICAgICAgICA8cGF0aCBzdHlsZT0iZmlsbDpub25lO2ZpbGwtcnVsZTpldmVub2RkO3N0cm9rZTojMDAwMDAwO3N0cm9rZS13aWR0aDozLjY2NDUzO3N0cm9rZS1saW5lY2FwOmJ1dHQ7c3Ryb2tlLWxpbmVqb2luOm1pdGVyO3N0cm9rZS1taXRlcmxpbWl0OjQ7c3Ryb2tlLWRhc2hhcnJheTpub25lO3N0cm9rZS1vcGFjaXR5OjEiIGQ9Im0gNjEuMTM2NzY3LDIwOC4zMTc5IGggMjAuNDc3MDQiIGlkPSJwYXRoNTY0NS03LTItMSIvPiYjeGE7ICAgICAgICAgIDxwYXRoIHN0eWxlPSJmaWxsOm5vbmU7ZmlsbC1ydWxlOmV2ZW5vZGQ7c3Ryb2tlOiNmZjAwMDA7c3Ryb2tlLXdpZHRoOjE7c3Ryb2tlLWxpbmVjYXA6YnV0dDtzdHJva2UtbGluZWpvaW46bWl0ZXI7c3Ryb2tlLW1pdGVybGltaXQ6NDtzdHJva2UtZGFzaGFycmF5Om5vbmU7c3Ryb2tlLW9wYWNpdHk6MTttYXJrZXItZW5kOnVybCgjVHJpYW5nbGVPdXRMLTYtMi0zMSkiIGQ9Im0gNzEuMzc1Mjc3LDE5NS42MTk3NiB2IDIuNjcxMTQiIGlkPSJwYXRoNTM5MC03LTgiLz4mI3hhOyAgICAgICAgPC9nPiYjeGE7ICAgICAgPC9nPiYjeGE7ICAgIDwvZz4mI3hhOyAgPC9nPiYjeGE7PC9zdmc+;" vertex="1" parent="OysmFfrSoxLZyFZqwhQm-74">
          <mxGeometry x="65" y="64" width="16" height="16" as="geometry" />
        </mxCell>
        <mxCell id="OysmFfrSoxLZyFZqwhQm-68" value="" style="shape=image;verticalLabelPosition=bottom;labelBackgroundColor=default;verticalAlign=top;aspect=fixed;imageAspect=0;image=data:image/svg+xml,PHN2ZyB4bWxucz0iaHR0cDovL3d3dy53My5vcmcvMjAwMC9zdmciIGlkPSJzdmcxIiB2ZXJzaW9uPSIxLjEiIHZpZXdCb3g9IjAgMCAxNC40Nzc0NzYgMTQuMDc5NDc5IiBoZWlnaHQ9IjE0LjA3OTQ3OW1tIiB3aWR0aD0iMTQuNDc3NDc2bW0iPiYjeGE7ICAmI3hhOyAgPGRlZnMgaWQ9ImRlZnMxIj4mI3hhOyAgICA8bWFya2VyIHN0eWxlPSJvdmVyZmxvdzp2aXNpYmxlIiBpZD0iVHJpYW5nbGVPdXRMLTYtMi0zLTEtOCIgcmVmWD0iMCIgcmVmWT0iMCIgb3JpZW50PSJhdXRvIj4mI3hhOyAgICAgIDxwYXRoIHRyYW5zZm9ybT0ic2NhbGUoMC44KSIgc3R5bGU9ImZpbGw6I2ZmMDAwMDtmaWxsLW9wYWNpdHk6MTtmaWxsLXJ1bGU6ZXZlbm9kZDtzdHJva2U6I2ZmMDAwMDtzdHJva2Utd2lkdGg6MXB0O3N0cm9rZS1vcGFjaXR5OjEiIGQ9Ik0gNS43NywwIC0yLjg4LDUgViAtNSBaIiBpZD0icGF0aDQzNTMtOS0wLTAtNiIvPiYjeGE7ICAgIDwvbWFya2VyPiYjeGE7ICAgIDxtYXJrZXIgc3R5bGU9Im92ZXJmbG93OnZpc2libGUiIGlkPSJUcmlhbmdsZU91dEwtNi0yLTMxIiByZWZYPSIwIiByZWZZPSIwIiBvcmllbnQ9ImF1dG8iPiYjeGE7ICAgICAgPHBhdGggdHJhbnNmb3JtPSJzY2FsZSgwLjgpIiBzdHlsZT0iZmlsbDojZmYwMDAwO2ZpbGwtb3BhY2l0eToxO2ZpbGwtcnVsZTpldmVub2RkO3N0cm9rZTojZmYwMDAwO3N0cm9rZS13aWR0aDoxcHQ7c3Ryb2tlLW9wYWNpdHk6MSIgZD0iTSA1Ljc3LDAgLTIuODgsNSBWIC01IFoiIGlkPSJwYXRoNDM1My05LTAtNSIvPiYjeGE7ICAgIDwvbWFya2VyPiYjeGE7ICA8L2RlZnM+JiN4YTsgIDxnIHRyYW5zZm9ybT0idHJhbnNsYXRlKC0xNTcuNjkxNjYsLTE3NS40MTg3NSkiIGlkPSJsYXllcjEiPiYjeGE7ICAgIDxnIHN0eWxlPSJkaXNwbGF5OmlubGluZSIgaWQ9Imc2OTk1IiB0cmFuc2Zvcm09Im1hdHJpeCgwLjI4MjIyMjIzLDAsMCwwLjI4MjIyMjIzLDEyMC4zMTM0OCwtODcuNTE2NzkzKSI+JiN4YTsgICAgICA8ZyBpZD0iZzYzNzEtNSIgdHJhbnNmb3JtPSJ0cmFuc2xhdGUoODYuNzE2MTYyLDc2MC42NzE2NykiPiYjeGE7ICAgICAgICA8cmVjdCByeT0iOC4wODEyMjA2IiB5PSIxNzEuOTg5NjkiIHg9IjQ2LjcyNjIwOCIgaGVpZ2h0PSI0Ny44ODc5MTciIHdpZHRoPSI0OS4yOTgxNDEiIGlkPSJyZWN0NDEzNi05LTIiIHN0eWxlPSJmaWxsOm5vbmU7ZmlsbC1vcGFjaXR5OjE7c3Ryb2tlOiMwMDAwMDA7c3Ryb2tlLXdpZHRoOjI7c3Ryb2tlLWxpbmVqb2luOnJvdW5kO3N0cm9rZS1taXRlcmxpbWl0OjEwO3N0cm9rZS1kYXNoYXJyYXk6bm9uZTtzdHJva2UtZGFzaG9mZnNldDowO3N0cm9rZS1vcGFjaXR5OjEiLz4mI3hhOyAgICAgICAgPGcgaWQ9Imc2MzYxLTMiPiYjeGE7ICAgICAgICAgIDxwYXRoIGlkPSJwYXRoMTMyOTAtMi00LTciIGQ9Im0gNjEuNTQxMjg3LDIwOS44MzMzNCAtNS42NzQyNCw2Ljg0NDExIiBzdHlsZT0iZmlsbDpub25lO3N0cm9rZTojMDAwMDAwO3N0cm9rZS13aWR0aDowLjkzNTU2NTtzdHJva2UtbGluZWNhcDpidXR0O3N0cm9rZS1saW5lam9pbjptaXRlcjtzdHJva2UtbWl0ZXJsaW1pdDo0O3N0cm9rZS1kYXNoYXJyYXk6bm9uZTtzdHJva2Utb3BhY2l0eToxIi8+JiN4YTsgICAgICAgICAgPHBhdGggaWQ9InBhdGgxMzI5MC0zLTgtNC0zIiBkPSJtIDY2LjQ3MTY4NywyMDkuODMzMzQgLTUuNjc0MjEsNi44NDQxMSIgc3R5bGU9ImZpbGw6bm9uZTtzdHJva2U6IzAwMDAwMDtzdHJva2Utd2lkdGg6MC45MzU1NjU7c3Ryb2tlLWxpbmVjYXA6YnV0dDtzdHJva2UtbGluZWpvaW46bWl0ZXI7c3Ryb2tlLW1pdGVybGltaXQ6NDtzdHJva2UtZGFzaGFycmF5Om5vbmU7c3Ryb2tlLW9wYWNpdHk6MSIvPiYjeGE7ICAgICAgICAgIDxwYXRoIGlkPSJwYXRoMTMyOTAtMy0yLTItNC02IiBkPSJtIDcxLjQwMjE2NywyMDkuODMzMzQgLTUuNjc0MjIsNi44NDQxMSIgc3R5bGU9ImZpbGw6bm9uZTtzdHJva2U6IzAwMDAwMDtzdHJva2Utd2lkdGg6MC45MzU1NjU7c3Ryb2tlLWxpbmVjYXA6YnV0dDtzdHJva2UtbGluZWpvaW46bWl0ZXI7c3Ryb2tlLW1pdGVybGltaXQ6NDtzdHJva2UtZGFzaGFycmF5Om5vbmU7c3Ryb2tlLW9wYWNpdHk6MSIvPiYjeGE7ICAgICAgICAgIDxwYXRoIGlkPSJwYXRoMTMyOTAtMy0xLTQtMi0zIiBkPSJtIDc2LjMzMjYzNywyMDkuODMzMzQgLTUuNjc0MjEsNi44NDQxMSIgc3R5bGU9ImZpbGw6bm9uZTtzdHJva2U6IzAwMDAwMDtzdHJva2Utd2lkdGg6MC45MzU1NjU7c3Ryb2tlLWxpbmVjYXA6YnV0dDtzdHJva2UtbGluZWpvaW46bWl0ZXI7c3Ryb2tlLW1pdGVybGltaXQ6NDtzdHJva2UtZGFzaGFycmF5Om5vbmU7c3Ryb2tlLW9wYWNpdHk6MSIvPiYjeGE7ICAgICAgICAgIDxwYXRoIGlkPSJwYXRoMTMyOTAtMy0yLTgtNS0yLTMiIGQ9Im0gODEuMjYzMDQ3LDIwOS44MzMzNCAtNS42NzQyMSw2Ljg0NDExIiBzdHlsZT0iZmlsbDpub25lO3N0cm9rZTojMDAwMDAwO3N0cm9rZS13aWR0aDowLjkzNTU2NTtzdHJva2UtbGluZWNhcDpidXR0O3N0cm9rZS1saW5lam9pbjptaXRlcjtzdHJva2UtbWl0ZXJsaW1pdDo0O3N0cm9rZS1kYXNoYXJyYXk6bm9uZTtzdHJva2Utb3BhY2l0eToxIi8+JiN4YTsgICAgICAgICAgPHBhdGggaWQ9InBhdGg1NTc2LTgtNC0yLTgiIGQ9Im0gNzEuMzIxNDE3LDIwNy42MzUzNiB2IC0zMS42MTg3OCAxOC4xMTI3NiBsIDEwLjU3NDU3LC0xOC4zMjIxOSAtMTAuNTc0NTcsMTguMzIyMTkgLTEwLjQ2OTc3LC0xOC4wMDgxIiBzdHlsZT0iZmlsbDpub25lO3N0cm9rZTojMDAwMDAwO3N0cm9rZS13aWR0aDozLjY2NDUzO3N0cm9rZS1saW5lY2FwOmJ1dHQ7c3Ryb2tlLWxpbmVqb2luOm1pdGVyO3N0cm9rZS1taXRlcmxpbWl0OjQ7c3Ryb2tlLWRhc2hhcnJheTpub25lO3N0cm9rZS1vcGFjaXR5OjEiLz4mI3hhOyAgICAgICAgICA8cGF0aCBzdHlsZT0iZmlsbDpub25lO2ZpbGwtcnVsZTpldmVub2RkO3N0cm9rZTojMDAwMDAwO3N0cm9rZS13aWR0aDozLjY2NDUzO3N0cm9rZS1saW5lY2FwOmJ1dHQ7c3Ryb2tlLWxpbmVqb2luOm1pdGVyO3N0cm9rZS1taXRlcmxpbWl0OjQ7c3Ryb2tlLWRhc2hhcnJheTpub25lO3N0cm9rZS1vcGFjaXR5OjEiIGQ9Im0gNjEuMTM2NzY3LDIwOC4zMTc5IGggMjAuNDc3MDQiIGlkPSJwYXRoNTY0NS03LTItMSIvPiYjeGE7ICAgICAgICAgIDxwYXRoIHN0eWxlPSJmaWxsOm5vbmU7ZmlsbC1ydWxlOmV2ZW5vZGQ7c3Ryb2tlOiNmZjAwMDA7c3Ryb2tlLXdpZHRoOjE7c3Ryb2tlLWxpbmVjYXA6YnV0dDtzdHJva2UtbGluZWpvaW46bWl0ZXI7c3Ryb2tlLW1pdGVybGltaXQ6NDtzdHJva2UtZGFzaGFycmF5Om5vbmU7c3Ryb2tlLW9wYWNpdHk6MTttYXJrZXItZW5kOnVybCgjVHJpYW5nbGVPdXRMLTYtMi0zMSkiIGQ9Im0gNzEuMzc1Mjc3LDE5NS42MTk3NiB2IDIuNjcxMTQiIGlkPSJwYXRoNTM5MC03LTgiLz4mI3hhOyAgICAgICAgPC9nPiYjeGE7ICAgICAgPC9nPiYjeGE7ICAgIDwvZz4mI3hhOyAgPC9nPiYjeGE7PC9zdmc+;" vertex="1" parent="OysmFfrSoxLZyFZqwhQm-74">
          <mxGeometry x="16.000000000000007" y="72" width="16" height="16" as="geometry" />
        </mxCell>
        <mxCell id="OysmFfrSoxLZyFZqwhQm-69" value="" style="shape=image;verticalLabelPosition=bottom;labelBackgroundColor=default;verticalAlign=top;aspect=fixed;imageAspect=0;image=data:image/svg+xml,PHN2ZyB4bWxucz0iaHR0cDovL3d3dy53My5vcmcvMjAwMC9zdmciIGlkPSJzdmcxIiB2ZXJzaW9uPSIxLjEiIHZpZXdCb3g9IjAgMCAxNC40Nzc0NzYgMTQuMDc5NDc5IiBoZWlnaHQ9IjE0LjA3OTQ3OW1tIiB3aWR0aD0iMTQuNDc3NDc2bW0iPiYjeGE7ICAmI3hhOyAgPGRlZnMgaWQ9ImRlZnMxIj4mI3hhOyAgICA8bWFya2VyIHN0eWxlPSJvdmVyZmxvdzp2aXNpYmxlIiBpZD0iVHJpYW5nbGVPdXRMLTYtMi0zLTEtOCIgcmVmWD0iMCIgcmVmWT0iMCIgb3JpZW50PSJhdXRvIj4mI3hhOyAgICAgIDxwYXRoIHRyYW5zZm9ybT0ic2NhbGUoMC44KSIgc3R5bGU9ImZpbGw6I2ZmMDAwMDtmaWxsLW9wYWNpdHk6MTtmaWxsLXJ1bGU6ZXZlbm9kZDtzdHJva2U6I2ZmMDAwMDtzdHJva2Utd2lkdGg6MXB0O3N0cm9rZS1vcGFjaXR5OjEiIGQ9Ik0gNS43NywwIC0yLjg4LDUgViAtNSBaIiBpZD0icGF0aDQzNTMtOS0wLTAtNiIvPiYjeGE7ICAgIDwvbWFya2VyPiYjeGE7ICAgIDxtYXJrZXIgc3R5bGU9Im92ZXJmbG93OnZpc2libGUiIGlkPSJUcmlhbmdsZU91dEwtNi0yLTMxIiByZWZYPSIwIiByZWZZPSIwIiBvcmllbnQ9ImF1dG8iPiYjeGE7ICAgICAgPHBhdGggdHJhbnNmb3JtPSJzY2FsZSgwLjgpIiBzdHlsZT0iZmlsbDojZmYwMDAwO2ZpbGwtb3BhY2l0eToxO2ZpbGwtcnVsZTpldmVub2RkO3N0cm9rZTojZmYwMDAwO3N0cm9rZS13aWR0aDoxcHQ7c3Ryb2tlLW9wYWNpdHk6MSIgZD0iTSA1Ljc3LDAgLTIuODgsNSBWIC01IFoiIGlkPSJwYXRoNDM1My05LTAtNSIvPiYjeGE7ICAgIDwvbWFya2VyPiYjeGE7ICA8L2RlZnM+JiN4YTsgIDxnIHRyYW5zZm9ybT0idHJhbnNsYXRlKC0xNTcuNjkxNjYsLTE3NS40MTg3NSkiIGlkPSJsYXllcjEiPiYjeGE7ICAgIDxnIHN0eWxlPSJkaXNwbGF5OmlubGluZSIgaWQ9Imc2OTk1IiB0cmFuc2Zvcm09Im1hdHJpeCgwLjI4MjIyMjIzLDAsMCwwLjI4MjIyMjIzLDEyMC4zMTM0OCwtODcuNTE2NzkzKSI+JiN4YTsgICAgICA8ZyBpZD0iZzYzNzEtNSIgdHJhbnNmb3JtPSJ0cmFuc2xhdGUoODYuNzE2MTYyLDc2MC42NzE2NykiPiYjeGE7ICAgICAgICA8cmVjdCByeT0iOC4wODEyMjA2IiB5PSIxNzEuOTg5NjkiIHg9IjQ2LjcyNjIwOCIgaGVpZ2h0PSI0Ny44ODc5MTciIHdpZHRoPSI0OS4yOTgxNDEiIGlkPSJyZWN0NDEzNi05LTIiIHN0eWxlPSJmaWxsOm5vbmU7ZmlsbC1vcGFjaXR5OjE7c3Ryb2tlOiMwMDAwMDA7c3Ryb2tlLXdpZHRoOjI7c3Ryb2tlLWxpbmVqb2luOnJvdW5kO3N0cm9rZS1taXRlcmxpbWl0OjEwO3N0cm9rZS1kYXNoYXJyYXk6bm9uZTtzdHJva2UtZGFzaG9mZnNldDowO3N0cm9rZS1vcGFjaXR5OjEiLz4mI3hhOyAgICAgICAgPGcgaWQ9Imc2MzYxLTMiPiYjeGE7ICAgICAgICAgIDxwYXRoIGlkPSJwYXRoMTMyOTAtMi00LTciIGQ9Im0gNjEuNTQxMjg3LDIwOS44MzMzNCAtNS42NzQyNCw2Ljg0NDExIiBzdHlsZT0iZmlsbDpub25lO3N0cm9rZTojMDAwMDAwO3N0cm9rZS13aWR0aDowLjkzNTU2NTtzdHJva2UtbGluZWNhcDpidXR0O3N0cm9rZS1saW5lam9pbjptaXRlcjtzdHJva2UtbWl0ZXJsaW1pdDo0O3N0cm9rZS1kYXNoYXJyYXk6bm9uZTtzdHJva2Utb3BhY2l0eToxIi8+JiN4YTsgICAgICAgICAgPHBhdGggaWQ9InBhdGgxMzI5MC0zLTgtNC0zIiBkPSJtIDY2LjQ3MTY4NywyMDkuODMzMzQgLTUuNjc0MjEsNi44NDQxMSIgc3R5bGU9ImZpbGw6bm9uZTtzdHJva2U6IzAwMDAwMDtzdHJva2Utd2lkdGg6MC45MzU1NjU7c3Ryb2tlLWxpbmVjYXA6YnV0dDtzdHJva2UtbGluZWpvaW46bWl0ZXI7c3Ryb2tlLW1pdGVybGltaXQ6NDtzdHJva2UtZGFzaGFycmF5Om5vbmU7c3Ryb2tlLW9wYWNpdHk6MSIvPiYjeGE7ICAgICAgICAgIDxwYXRoIGlkPSJwYXRoMTMyOTAtMy0yLTItNC02IiBkPSJtIDcxLjQwMjE2NywyMDkuODMzMzQgLTUuNjc0MjIsNi44NDQxMSIgc3R5bGU9ImZpbGw6bm9uZTtzdHJva2U6IzAwMDAwMDtzdHJva2Utd2lkdGg6MC45MzU1NjU7c3Ryb2tlLWxpbmVjYXA6YnV0dDtzdHJva2UtbGluZWpvaW46bWl0ZXI7c3Ryb2tlLW1pdGVybGltaXQ6NDtzdHJva2UtZGFzaGFycmF5Om5vbmU7c3Ryb2tlLW9wYWNpdHk6MSIvPiYjeGE7ICAgICAgICAgIDxwYXRoIGlkPSJwYXRoMTMyOTAtMy0xLTQtMi0zIiBkPSJtIDc2LjMzMjYzNywyMDkuODMzMzQgLTUuNjc0MjEsNi44NDQxMSIgc3R5bGU9ImZpbGw6bm9uZTtzdHJva2U6IzAwMDAwMDtzdHJva2Utd2lkdGg6MC45MzU1NjU7c3Ryb2tlLWxpbmVjYXA6YnV0dDtzdHJva2UtbGluZWpvaW46bWl0ZXI7c3Ryb2tlLW1pdGVybGltaXQ6NDtzdHJva2UtZGFzaGFycmF5Om5vbmU7c3Ryb2tlLW9wYWNpdHk6MSIvPiYjeGE7ICAgICAgICAgIDxwYXRoIGlkPSJwYXRoMTMyOTAtMy0yLTgtNS0yLTMiIGQ9Im0gODEuMjYzMDQ3LDIwOS44MzMzNCAtNS42NzQyMSw2Ljg0NDExIiBzdHlsZT0iZmlsbDpub25lO3N0cm9rZTojMDAwMDAwO3N0cm9rZS13aWR0aDowLjkzNTU2NTtzdHJva2UtbGluZWNhcDpidXR0O3N0cm9rZS1saW5lam9pbjptaXRlcjtzdHJva2UtbWl0ZXJsaW1pdDo0O3N0cm9rZS1kYXNoYXJyYXk6bm9uZTtzdHJva2Utb3BhY2l0eToxIi8+JiN4YTsgICAgICAgICAgPHBhdGggaWQ9InBhdGg1NTc2LTgtNC0yLTgiIGQ9Im0gNzEuMzIxNDE3LDIwNy42MzUzNiB2IC0zMS42MTg3OCAxOC4xMTI3NiBsIDEwLjU3NDU3LC0xOC4zMjIxOSAtMTAuNTc0NTcsMTguMzIyMTkgLTEwLjQ2OTc3LC0xOC4wMDgxIiBzdHlsZT0iZmlsbDpub25lO3N0cm9rZTojMDAwMDAwO3N0cm9rZS13aWR0aDozLjY2NDUzO3N0cm9rZS1saW5lY2FwOmJ1dHQ7c3Ryb2tlLWxpbmVqb2luOm1pdGVyO3N0cm9rZS1taXRlcmxpbWl0OjQ7c3Ryb2tlLWRhc2hhcnJheTpub25lO3N0cm9rZS1vcGFjaXR5OjEiLz4mI3hhOyAgICAgICAgICA8cGF0aCBzdHlsZT0iZmlsbDpub25lO2ZpbGwtcnVsZTpldmVub2RkO3N0cm9rZTojMDAwMDAwO3N0cm9rZS13aWR0aDozLjY2NDUzO3N0cm9rZS1saW5lY2FwOmJ1dHQ7c3Ryb2tlLWxpbmVqb2luOm1pdGVyO3N0cm9rZS1taXRlcmxpbWl0OjQ7c3Ryb2tlLWRhc2hhcnJheTpub25lO3N0cm9rZS1vcGFjaXR5OjEiIGQ9Im0gNjEuMTM2NzY3LDIwOC4zMTc5IGggMjAuNDc3MDQiIGlkPSJwYXRoNTY0NS03LTItMSIvPiYjeGE7ICAgICAgICAgIDxwYXRoIHN0eWxlPSJmaWxsOm5vbmU7ZmlsbC1ydWxlOmV2ZW5vZGQ7c3Ryb2tlOiNmZjAwMDA7c3Ryb2tlLXdpZHRoOjE7c3Ryb2tlLWxpbmVjYXA6YnV0dDtzdHJva2UtbGluZWpvaW46bWl0ZXI7c3Ryb2tlLW1pdGVybGltaXQ6NDtzdHJva2UtZGFzaGFycmF5Om5vbmU7c3Ryb2tlLW9wYWNpdHk6MTttYXJrZXItZW5kOnVybCgjVHJpYW5nbGVPdXRMLTYtMi0zMSkiIGQ9Im0gNzEuMzc1Mjc3LDE5NS42MTk3NiB2IDIuNjcxMTQiIGlkPSJwYXRoNTM5MC03LTgiLz4mI3hhOyAgICAgICAgPC9nPiYjeGE7ICAgICAgPC9nPiYjeGE7ICAgIDwvZz4mI3hhOyAgPC9nPiYjeGE7PC9zdmc+;" vertex="1" parent="OysmFfrSoxLZyFZqwhQm-74">
          <mxGeometry y="52" width="16" height="16" as="geometry" />
        </mxCell>
        <mxCell id="OysmFfrSoxLZyFZqwhQm-70" value="" style="shape=image;verticalLabelPosition=bottom;labelBackgroundColor=default;verticalAlign=top;aspect=fixed;imageAspect=0;image=data:image/svg+xml,PHN2ZyB4bWxucz0iaHR0cDovL3d3dy53My5vcmcvMjAwMC9zdmciIGlkPSJzdmcxIiB2ZXJzaW9uPSIxLjEiIHZpZXdCb3g9IjAgMCAxNC40Nzc0NzYgMTQuMDc5NDc5IiBoZWlnaHQ9IjE0LjA3OTQ3OW1tIiB3aWR0aD0iMTQuNDc3NDc2bW0iPiYjeGE7ICAmI3hhOyAgPGRlZnMgaWQ9ImRlZnMxIj4mI3hhOyAgICA8bWFya2VyIHN0eWxlPSJvdmVyZmxvdzp2aXNpYmxlIiBpZD0iVHJpYW5nbGVPdXRMLTYtMi0zLTEtOCIgcmVmWD0iMCIgcmVmWT0iMCIgb3JpZW50PSJhdXRvIj4mI3hhOyAgICAgIDxwYXRoIHRyYW5zZm9ybT0ic2NhbGUoMC44KSIgc3R5bGU9ImZpbGw6I2ZmMDAwMDtmaWxsLW9wYWNpdHk6MTtmaWxsLXJ1bGU6ZXZlbm9kZDtzdHJva2U6I2ZmMDAwMDtzdHJva2Utd2lkdGg6MXB0O3N0cm9rZS1vcGFjaXR5OjEiIGQ9Ik0gNS43NywwIC0yLjg4LDUgViAtNSBaIiBpZD0icGF0aDQzNTMtOS0wLTAtNiIvPiYjeGE7ICAgIDwvbWFya2VyPiYjeGE7ICAgIDxtYXJrZXIgc3R5bGU9Im92ZXJmbG93OnZpc2libGUiIGlkPSJUcmlhbmdsZU91dEwtNi0yLTMxIiByZWZYPSIwIiByZWZZPSIwIiBvcmllbnQ9ImF1dG8iPiYjeGE7ICAgICAgPHBhdGggdHJhbnNmb3JtPSJzY2FsZSgwLjgpIiBzdHlsZT0iZmlsbDojZmYwMDAwO2ZpbGwtb3BhY2l0eToxO2ZpbGwtcnVsZTpldmVub2RkO3N0cm9rZTojZmYwMDAwO3N0cm9rZS13aWR0aDoxcHQ7c3Ryb2tlLW9wYWNpdHk6MSIgZD0iTSA1Ljc3LDAgLTIuODgsNSBWIC01IFoiIGlkPSJwYXRoNDM1My05LTAtNSIvPiYjeGE7ICAgIDwvbWFya2VyPiYjeGE7ICA8L2RlZnM+JiN4YTsgIDxnIHRyYW5zZm9ybT0idHJhbnNsYXRlKC0xNTcuNjkxNjYsLTE3NS40MTg3NSkiIGlkPSJsYXllcjEiPiYjeGE7ICAgIDxnIHN0eWxlPSJkaXNwbGF5OmlubGluZSIgaWQ9Imc2OTk1IiB0cmFuc2Zvcm09Im1hdHJpeCgwLjI4MjIyMjIzLDAsMCwwLjI4MjIyMjIzLDEyMC4zMTM0OCwtODcuNTE2NzkzKSI+JiN4YTsgICAgICA8ZyBpZD0iZzYzNzEtNSIgdHJhbnNmb3JtPSJ0cmFuc2xhdGUoODYuNzE2MTYyLDc2MC42NzE2NykiPiYjeGE7ICAgICAgICA8cmVjdCByeT0iOC4wODEyMjA2IiB5PSIxNzEuOTg5NjkiIHg9IjQ2LjcyNjIwOCIgaGVpZ2h0PSI0Ny44ODc5MTciIHdpZHRoPSI0OS4yOTgxNDEiIGlkPSJyZWN0NDEzNi05LTIiIHN0eWxlPSJmaWxsOm5vbmU7ZmlsbC1vcGFjaXR5OjE7c3Ryb2tlOiMwMDAwMDA7c3Ryb2tlLXdpZHRoOjI7c3Ryb2tlLWxpbmVqb2luOnJvdW5kO3N0cm9rZS1taXRlcmxpbWl0OjEwO3N0cm9rZS1kYXNoYXJyYXk6bm9uZTtzdHJva2UtZGFzaG9mZnNldDowO3N0cm9rZS1vcGFjaXR5OjEiLz4mI3hhOyAgICAgICAgPGcgaWQ9Imc2MzYxLTMiPiYjeGE7ICAgICAgICAgIDxwYXRoIGlkPSJwYXRoMTMyOTAtMi00LTciIGQ9Im0gNjEuNTQxMjg3LDIwOS44MzMzNCAtNS42NzQyNCw2Ljg0NDExIiBzdHlsZT0iZmlsbDpub25lO3N0cm9rZTojMDAwMDAwO3N0cm9rZS13aWR0aDowLjkzNTU2NTtzdHJva2UtbGluZWNhcDpidXR0O3N0cm9rZS1saW5lam9pbjptaXRlcjtzdHJva2UtbWl0ZXJsaW1pdDo0O3N0cm9rZS1kYXNoYXJyYXk6bm9uZTtzdHJva2Utb3BhY2l0eToxIi8+JiN4YTsgICAgICAgICAgPHBhdGggaWQ9InBhdGgxMzI5MC0zLTgtNC0zIiBkPSJtIDY2LjQ3MTY4NywyMDkuODMzMzQgLTUuNjc0MjEsNi44NDQxMSIgc3R5bGU9ImZpbGw6bm9uZTtzdHJva2U6IzAwMDAwMDtzdHJva2Utd2lkdGg6MC45MzU1NjU7c3Ryb2tlLWxpbmVjYXA6YnV0dDtzdHJva2UtbGluZWpvaW46bWl0ZXI7c3Ryb2tlLW1pdGVybGltaXQ6NDtzdHJva2UtZGFzaGFycmF5Om5vbmU7c3Ryb2tlLW9wYWNpdHk6MSIvPiYjeGE7ICAgICAgICAgIDxwYXRoIGlkPSJwYXRoMTMyOTAtMy0yLTItNC02IiBkPSJtIDcxLjQwMjE2NywyMDkuODMzMzQgLTUuNjc0MjIsNi44NDQxMSIgc3R5bGU9ImZpbGw6bm9uZTtzdHJva2U6IzAwMDAwMDtzdHJva2Utd2lkdGg6MC45MzU1NjU7c3Ryb2tlLWxpbmVjYXA6YnV0dDtzdHJva2UtbGluZWpvaW46bWl0ZXI7c3Ryb2tlLW1pdGVybGltaXQ6NDtzdHJva2UtZGFzaGFycmF5Om5vbmU7c3Ryb2tlLW9wYWNpdHk6MSIvPiYjeGE7ICAgICAgICAgIDxwYXRoIGlkPSJwYXRoMTMyOTAtMy0xLTQtMi0zIiBkPSJtIDc2LjMzMjYzNywyMDkuODMzMzQgLTUuNjc0MjEsNi44NDQxMSIgc3R5bGU9ImZpbGw6bm9uZTtzdHJva2U6IzAwMDAwMDtzdHJva2Utd2lkdGg6MC45MzU1NjU7c3Ryb2tlLWxpbmVjYXA6YnV0dDtzdHJva2UtbGluZWpvaW46bWl0ZXI7c3Ryb2tlLW1pdGVybGltaXQ6NDtzdHJva2UtZGFzaGFycmF5Om5vbmU7c3Ryb2tlLW9wYWNpdHk6MSIvPiYjeGE7ICAgICAgICAgIDxwYXRoIGlkPSJwYXRoMTMyOTAtMy0yLTgtNS0yLTMiIGQ9Im0gODEuMjYzMDQ3LDIwOS44MzMzNCAtNS42NzQyMSw2Ljg0NDExIiBzdHlsZT0iZmlsbDpub25lO3N0cm9rZTojMDAwMDAwO3N0cm9rZS13aWR0aDowLjkzNTU2NTtzdHJva2UtbGluZWNhcDpidXR0O3N0cm9rZS1saW5lam9pbjptaXRlcjtzdHJva2UtbWl0ZXJsaW1pdDo0O3N0cm9rZS1kYXNoYXJyYXk6bm9uZTtzdHJva2Utb3BhY2l0eToxIi8+JiN4YTsgICAgICAgICAgPHBhdGggaWQ9InBhdGg1NTc2LTgtNC0yLTgiIGQ9Im0gNzEuMzIxNDE3LDIwNy42MzUzNiB2IC0zMS42MTg3OCAxOC4xMTI3NiBsIDEwLjU3NDU3LC0xOC4zMjIxOSAtMTAuNTc0NTcsMTguMzIyMTkgLTEwLjQ2OTc3LC0xOC4wMDgxIiBzdHlsZT0iZmlsbDpub25lO3N0cm9rZTojMDAwMDAwO3N0cm9rZS13aWR0aDozLjY2NDUzO3N0cm9rZS1saW5lY2FwOmJ1dHQ7c3Ryb2tlLWxpbmVqb2luOm1pdGVyO3N0cm9rZS1taXRlcmxpbWl0OjQ7c3Ryb2tlLWRhc2hhcnJheTpub25lO3N0cm9rZS1vcGFjaXR5OjEiLz4mI3hhOyAgICAgICAgICA8cGF0aCBzdHlsZT0iZmlsbDpub25lO2ZpbGwtcnVsZTpldmVub2RkO3N0cm9rZTojMDAwMDAwO3N0cm9rZS13aWR0aDozLjY2NDUzO3N0cm9rZS1saW5lY2FwOmJ1dHQ7c3Ryb2tlLWxpbmVqb2luOm1pdGVyO3N0cm9rZS1taXRlcmxpbWl0OjQ7c3Ryb2tlLWRhc2hhcnJheTpub25lO3N0cm9rZS1vcGFjaXR5OjEiIGQ9Im0gNjEuMTM2NzY3LDIwOC4zMTc5IGggMjAuNDc3MDQiIGlkPSJwYXRoNTY0NS03LTItMSIvPiYjeGE7ICAgICAgICAgIDxwYXRoIHN0eWxlPSJmaWxsOm5vbmU7ZmlsbC1ydWxlOmV2ZW5vZGQ7c3Ryb2tlOiNmZjAwMDA7c3Ryb2tlLXdpZHRoOjE7c3Ryb2tlLWxpbmVjYXA6YnV0dDtzdHJva2UtbGluZWpvaW46bWl0ZXI7c3Ryb2tlLW1pdGVybGltaXQ6NDtzdHJva2UtZGFzaGFycmF5Om5vbmU7c3Ryb2tlLW9wYWNpdHk6MTttYXJrZXItZW5kOnVybCgjVHJpYW5nbGVPdXRMLTYtMi0zMSkiIGQ9Im0gNzEuMzc1Mjc3LDE5NS42MTk3NiB2IDIuNjcxMTQiIGlkPSJwYXRoNTM5MC03LTgiLz4mI3hhOyAgICAgICAgPC9nPiYjeGE7ICAgICAgPC9nPiYjeGE7ICAgIDwvZz4mI3hhOyAgPC9nPiYjeGE7PC9zdmc+;" vertex="1" parent="OysmFfrSoxLZyFZqwhQm-74">
          <mxGeometry y="25" width="16" height="16" as="geometry" />
        </mxCell>
        <mxCell id="OysmFfrSoxLZyFZqwhQm-71" value="" style="shape=image;verticalLabelPosition=bottom;labelBackgroundColor=default;verticalAlign=top;aspect=fixed;imageAspect=0;image=data:image/svg+xml,PHN2ZyB4bWxucz0iaHR0cDovL3d3dy53My5vcmcvMjAwMC9zdmciIGlkPSJzdmcxIiB2ZXJzaW9uPSIxLjEiIHZpZXdCb3g9IjAgMCAxNC40Nzc0NzYgMTQuMDc5NDc5IiBoZWlnaHQ9IjE0LjA3OTQ3OW1tIiB3aWR0aD0iMTQuNDc3NDc2bW0iPiYjeGE7ICAmI3hhOyAgPGRlZnMgaWQ9ImRlZnMxIj4mI3hhOyAgICA8bWFya2VyIHN0eWxlPSJvdmVyZmxvdzp2aXNpYmxlIiBpZD0iVHJpYW5nbGVPdXRMLTYtMi0zLTEtOCIgcmVmWD0iMCIgcmVmWT0iMCIgb3JpZW50PSJhdXRvIj4mI3hhOyAgICAgIDxwYXRoIHRyYW5zZm9ybT0ic2NhbGUoMC44KSIgc3R5bGU9ImZpbGw6I2ZmMDAwMDtmaWxsLW9wYWNpdHk6MTtmaWxsLXJ1bGU6ZXZlbm9kZDtzdHJva2U6I2ZmMDAwMDtzdHJva2Utd2lkdGg6MXB0O3N0cm9rZS1vcGFjaXR5OjEiIGQ9Ik0gNS43NywwIC0yLjg4LDUgViAtNSBaIiBpZD0icGF0aDQzNTMtOS0wLTAtNiIvPiYjeGE7ICAgIDwvbWFya2VyPiYjeGE7ICAgIDxtYXJrZXIgc3R5bGU9Im92ZXJmbG93OnZpc2libGUiIGlkPSJUcmlhbmdsZU91dEwtNi0yLTMxIiByZWZYPSIwIiByZWZZPSIwIiBvcmllbnQ9ImF1dG8iPiYjeGE7ICAgICAgPHBhdGggdHJhbnNmb3JtPSJzY2FsZSgwLjgpIiBzdHlsZT0iZmlsbDojZmYwMDAwO2ZpbGwtb3BhY2l0eToxO2ZpbGwtcnVsZTpldmVub2RkO3N0cm9rZTojZmYwMDAwO3N0cm9rZS13aWR0aDoxcHQ7c3Ryb2tlLW9wYWNpdHk6MSIgZD0iTSA1Ljc3LDAgLTIuODgsNSBWIC01IFoiIGlkPSJwYXRoNDM1My05LTAtNSIvPiYjeGE7ICAgIDwvbWFya2VyPiYjeGE7ICA8L2RlZnM+JiN4YTsgIDxnIHRyYW5zZm9ybT0idHJhbnNsYXRlKC0xNTcuNjkxNjYsLTE3NS40MTg3NSkiIGlkPSJsYXllcjEiPiYjeGE7ICAgIDxnIHN0eWxlPSJkaXNwbGF5OmlubGluZSIgaWQ9Imc2OTk1IiB0cmFuc2Zvcm09Im1hdHJpeCgwLjI4MjIyMjIzLDAsMCwwLjI4MjIyMjIzLDEyMC4zMTM0OCwtODcuNTE2NzkzKSI+JiN4YTsgICAgICA8ZyBpZD0iZzYzNzEtNSIgdHJhbnNmb3JtPSJ0cmFuc2xhdGUoODYuNzE2MTYyLDc2MC42NzE2NykiPiYjeGE7ICAgICAgICA8cmVjdCByeT0iOC4wODEyMjA2IiB5PSIxNzEuOTg5NjkiIHg9IjQ2LjcyNjIwOCIgaGVpZ2h0PSI0Ny44ODc5MTciIHdpZHRoPSI0OS4yOTgxNDEiIGlkPSJyZWN0NDEzNi05LTIiIHN0eWxlPSJmaWxsOm5vbmU7ZmlsbC1vcGFjaXR5OjE7c3Ryb2tlOiMwMDAwMDA7c3Ryb2tlLXdpZHRoOjI7c3Ryb2tlLWxpbmVqb2luOnJvdW5kO3N0cm9rZS1taXRlcmxpbWl0OjEwO3N0cm9rZS1kYXNoYXJyYXk6bm9uZTtzdHJva2UtZGFzaG9mZnNldDowO3N0cm9rZS1vcGFjaXR5OjEiLz4mI3hhOyAgICAgICAgPGcgaWQ9Imc2MzYxLTMiPiYjeGE7ICAgICAgICAgIDxwYXRoIGlkPSJwYXRoMTMyOTAtMi00LTciIGQ9Im0gNjEuNTQxMjg3LDIwOS44MzMzNCAtNS42NzQyNCw2Ljg0NDExIiBzdHlsZT0iZmlsbDpub25lO3N0cm9rZTojMDAwMDAwO3N0cm9rZS13aWR0aDowLjkzNTU2NTtzdHJva2UtbGluZWNhcDpidXR0O3N0cm9rZS1saW5lam9pbjptaXRlcjtzdHJva2UtbWl0ZXJsaW1pdDo0O3N0cm9rZS1kYXNoYXJyYXk6bm9uZTtzdHJva2Utb3BhY2l0eToxIi8+JiN4YTsgICAgICAgICAgPHBhdGggaWQ9InBhdGgxMzI5MC0zLTgtNC0zIiBkPSJtIDY2LjQ3MTY4NywyMDkuODMzMzQgLTUuNjc0MjEsNi44NDQxMSIgc3R5bGU9ImZpbGw6bm9uZTtzdHJva2U6IzAwMDAwMDtzdHJva2Utd2lkdGg6MC45MzU1NjU7c3Ryb2tlLWxpbmVjYXA6YnV0dDtzdHJva2UtbGluZWpvaW46bWl0ZXI7c3Ryb2tlLW1pdGVybGltaXQ6NDtzdHJva2UtZGFzaGFycmF5Om5vbmU7c3Ryb2tlLW9wYWNpdHk6MSIvPiYjeGE7ICAgICAgICAgIDxwYXRoIGlkPSJwYXRoMTMyOTAtMy0yLTItNC02IiBkPSJtIDcxLjQwMjE2NywyMDkuODMzMzQgLTUuNjc0MjIsNi44NDQxMSIgc3R5bGU9ImZpbGw6bm9uZTtzdHJva2U6IzAwMDAwMDtzdHJva2Utd2lkdGg6MC45MzU1NjU7c3Ryb2tlLWxpbmVjYXA6YnV0dDtzdHJva2UtbGluZWpvaW46bWl0ZXI7c3Ryb2tlLW1pdGVybGltaXQ6NDtzdHJva2UtZGFzaGFycmF5Om5vbmU7c3Ryb2tlLW9wYWNpdHk6MSIvPiYjeGE7ICAgICAgICAgIDxwYXRoIGlkPSJwYXRoMTMyOTAtMy0xLTQtMi0zIiBkPSJtIDc2LjMzMjYzNywyMDkuODMzMzQgLTUuNjc0MjEsNi44NDQxMSIgc3R5bGU9ImZpbGw6bm9uZTtzdHJva2U6IzAwMDAwMDtzdHJva2Utd2lkdGg6MC45MzU1NjU7c3Ryb2tlLWxpbmVjYXA6YnV0dDtzdHJva2UtbGluZWpvaW46bWl0ZXI7c3Ryb2tlLW1pdGVybGltaXQ6NDtzdHJva2UtZGFzaGFycmF5Om5vbmU7c3Ryb2tlLW9wYWNpdHk6MSIvPiYjeGE7ICAgICAgICAgIDxwYXRoIGlkPSJwYXRoMTMyOTAtMy0yLTgtNS0yLTMiIGQ9Im0gODEuMjYzMDQ3LDIwOS44MzMzNCAtNS42NzQyMSw2Ljg0NDExIiBzdHlsZT0iZmlsbDpub25lO3N0cm9rZTojMDAwMDAwO3N0cm9rZS13aWR0aDowLjkzNTU2NTtzdHJva2UtbGluZWNhcDpidXR0O3N0cm9rZS1saW5lam9pbjptaXRlcjtzdHJva2UtbWl0ZXJsaW1pdDo0O3N0cm9rZS1kYXNoYXJyYXk6bm9uZTtzdHJva2Utb3BhY2l0eToxIi8+JiN4YTsgICAgICAgICAgPHBhdGggaWQ9InBhdGg1NTc2LTgtNC0yLTgiIGQ9Im0gNzEuMzIxNDE3LDIwNy42MzUzNiB2IC0zMS42MTg3OCAxOC4xMTI3NiBsIDEwLjU3NDU3LC0xOC4zMjIxOSAtMTAuNTc0NTcsMTguMzIyMTkgLTEwLjQ2OTc3LC0xOC4wMDgxIiBzdHlsZT0iZmlsbDpub25lO3N0cm9rZTojMDAwMDAwO3N0cm9rZS13aWR0aDozLjY2NDUzO3N0cm9rZS1saW5lY2FwOmJ1dHQ7c3Ryb2tlLWxpbmVqb2luOm1pdGVyO3N0cm9rZS1taXRlcmxpbWl0OjQ7c3Ryb2tlLWRhc2hhcnJheTpub25lO3N0cm9rZS1vcGFjaXR5OjEiLz4mI3hhOyAgICAgICAgICA8cGF0aCBzdHlsZT0iZmlsbDpub25lO2ZpbGwtcnVsZTpldmVub2RkO3N0cm9rZTojMDAwMDAwO3N0cm9rZS13aWR0aDozLjY2NDUzO3N0cm9rZS1saW5lY2FwOmJ1dHQ7c3Ryb2tlLWxpbmVqb2luOm1pdGVyO3N0cm9rZS1taXRlcmxpbWl0OjQ7c3Ryb2tlLWRhc2hhcnJheTpub25lO3N0cm9rZS1vcGFjaXR5OjEiIGQ9Im0gNjEuMTM2NzY3LDIwOC4zMTc5IGggMjAuNDc3MDQiIGlkPSJwYXRoNTY0NS03LTItMSIvPiYjeGE7ICAgICAgICAgIDxwYXRoIHN0eWxlPSJmaWxsOm5vbmU7ZmlsbC1ydWxlOmV2ZW5vZGQ7c3Ryb2tlOiNmZjAwMDA7c3Ryb2tlLXdpZHRoOjE7c3Ryb2tlLWxpbmVjYXA6YnV0dDtzdHJva2UtbGluZWpvaW46bWl0ZXI7c3Ryb2tlLW1pdGVybGltaXQ6NDtzdHJva2UtZGFzaGFycmF5Om5vbmU7c3Ryb2tlLW9wYWNpdHk6MTttYXJrZXItZW5kOnVybCgjVHJpYW5nbGVPdXRMLTYtMi0zMSkiIGQ9Im0gNzEuMzc1Mjc3LDE5NS42MTk3NiB2IDIuNjcxMTQiIGlkPSJwYXRoNTM5MC03LTgiLz4mI3hhOyAgICAgICAgPC9nPiYjeGE7ICAgICAgPC9nPiYjeGE7ICAgIDwvZz4mI3hhOyAgPC9nPiYjeGE7PC9zdmc+;" vertex="1" parent="OysmFfrSoxLZyFZqwhQm-74">
          <mxGeometry x="16.000000000000007" y="6" width="16" height="16" as="geometry" />
        </mxCell>
        <mxCell id="OysmFfrSoxLZyFZqwhQm-72" value="" style="shape=image;verticalLabelPosition=bottom;labelBackgroundColor=default;verticalAlign=top;aspect=fixed;imageAspect=0;image=data:image/svg+xml,PHN2ZyB4bWxucz0iaHR0cDovL3d3dy53My5vcmcvMjAwMC9zdmciIGlkPSJzdmcxIiB2ZXJzaW9uPSIxLjEiIHZpZXdCb3g9IjAgMCAxNC40Nzc0NzYgMTQuMDc5NDc5IiBoZWlnaHQ9IjE0LjA3OTQ3OW1tIiB3aWR0aD0iMTQuNDc3NDc2bW0iPiYjeGE7ICAmI3hhOyAgPGRlZnMgaWQ9ImRlZnMxIj4mI3hhOyAgICA8bWFya2VyIHN0eWxlPSJvdmVyZmxvdzp2aXNpYmxlIiBpZD0iVHJpYW5nbGVPdXRMLTYtMi0zLTEtOCIgcmVmWD0iMCIgcmVmWT0iMCIgb3JpZW50PSJhdXRvIj4mI3hhOyAgICAgIDxwYXRoIHRyYW5zZm9ybT0ic2NhbGUoMC44KSIgc3R5bGU9ImZpbGw6I2ZmMDAwMDtmaWxsLW9wYWNpdHk6MTtmaWxsLXJ1bGU6ZXZlbm9kZDtzdHJva2U6I2ZmMDAwMDtzdHJva2Utd2lkdGg6MXB0O3N0cm9rZS1vcGFjaXR5OjEiIGQ9Ik0gNS43NywwIC0yLjg4LDUgViAtNSBaIiBpZD0icGF0aDQzNTMtOS0wLTAtNiIvPiYjeGE7ICAgIDwvbWFya2VyPiYjeGE7ICAgIDxtYXJrZXIgc3R5bGU9Im92ZXJmbG93OnZpc2libGUiIGlkPSJUcmlhbmdsZU91dEwtNi0yLTMxIiByZWZYPSIwIiByZWZZPSIwIiBvcmllbnQ9ImF1dG8iPiYjeGE7ICAgICAgPHBhdGggdHJhbnNmb3JtPSJzY2FsZSgwLjgpIiBzdHlsZT0iZmlsbDojZmYwMDAwO2ZpbGwtb3BhY2l0eToxO2ZpbGwtcnVsZTpldmVub2RkO3N0cm9rZTojZmYwMDAwO3N0cm9rZS13aWR0aDoxcHQ7c3Ryb2tlLW9wYWNpdHk6MSIgZD0iTSA1Ljc3LDAgLTIuODgsNSBWIC01IFoiIGlkPSJwYXRoNDM1My05LTAtNSIvPiYjeGE7ICAgIDwvbWFya2VyPiYjeGE7ICA8L2RlZnM+JiN4YTsgIDxnIHRyYW5zZm9ybT0idHJhbnNsYXRlKC0xNTcuNjkxNjYsLTE3NS40MTg3NSkiIGlkPSJsYXllcjEiPiYjeGE7ICAgIDxnIHN0eWxlPSJkaXNwbGF5OmlubGluZSIgaWQ9Imc2OTk1IiB0cmFuc2Zvcm09Im1hdHJpeCgwLjI4MjIyMjIzLDAsMCwwLjI4MjIyMjIzLDEyMC4zMTM0OCwtODcuNTE2NzkzKSI+JiN4YTsgICAgICA8ZyBpZD0iZzYzNzEtNSIgdHJhbnNmb3JtPSJ0cmFuc2xhdGUoODYuNzE2MTYyLDc2MC42NzE2NykiPiYjeGE7ICAgICAgICA8cmVjdCByeT0iOC4wODEyMjA2IiB5PSIxNzEuOTg5NjkiIHg9IjQ2LjcyNjIwOCIgaGVpZ2h0PSI0Ny44ODc5MTciIHdpZHRoPSI0OS4yOTgxNDEiIGlkPSJyZWN0NDEzNi05LTIiIHN0eWxlPSJmaWxsOm5vbmU7ZmlsbC1vcGFjaXR5OjE7c3Ryb2tlOiMwMDAwMDA7c3Ryb2tlLXdpZHRoOjI7c3Ryb2tlLWxpbmVqb2luOnJvdW5kO3N0cm9rZS1taXRlcmxpbWl0OjEwO3N0cm9rZS1kYXNoYXJyYXk6bm9uZTtzdHJva2UtZGFzaG9mZnNldDowO3N0cm9rZS1vcGFjaXR5OjEiLz4mI3hhOyAgICAgICAgPGcgaWQ9Imc2MzYxLTMiPiYjeGE7ICAgICAgICAgIDxwYXRoIGlkPSJwYXRoMTMyOTAtMi00LTciIGQ9Im0gNjEuNTQxMjg3LDIwOS44MzMzNCAtNS42NzQyNCw2Ljg0NDExIiBzdHlsZT0iZmlsbDpub25lO3N0cm9rZTojMDAwMDAwO3N0cm9rZS13aWR0aDowLjkzNTU2NTtzdHJva2UtbGluZWNhcDpidXR0O3N0cm9rZS1saW5lam9pbjptaXRlcjtzdHJva2UtbWl0ZXJsaW1pdDo0O3N0cm9rZS1kYXNoYXJyYXk6bm9uZTtzdHJva2Utb3BhY2l0eToxIi8+JiN4YTsgICAgICAgICAgPHBhdGggaWQ9InBhdGgxMzI5MC0zLTgtNC0zIiBkPSJtIDY2LjQ3MTY4NywyMDkuODMzMzQgLTUuNjc0MjEsNi44NDQxMSIgc3R5bGU9ImZpbGw6bm9uZTtzdHJva2U6IzAwMDAwMDtzdHJva2Utd2lkdGg6MC45MzU1NjU7c3Ryb2tlLWxpbmVjYXA6YnV0dDtzdHJva2UtbGluZWpvaW46bWl0ZXI7c3Ryb2tlLW1pdGVybGltaXQ6NDtzdHJva2UtZGFzaGFycmF5Om5vbmU7c3Ryb2tlLW9wYWNpdHk6MSIvPiYjeGE7ICAgICAgICAgIDxwYXRoIGlkPSJwYXRoMTMyOTAtMy0yLTItNC02IiBkPSJtIDcxLjQwMjE2NywyMDkuODMzMzQgLTUuNjc0MjIsNi44NDQxMSIgc3R5bGU9ImZpbGw6bm9uZTtzdHJva2U6IzAwMDAwMDtzdHJva2Utd2lkdGg6MC45MzU1NjU7c3Ryb2tlLWxpbmVjYXA6YnV0dDtzdHJva2UtbGluZWpvaW46bWl0ZXI7c3Ryb2tlLW1pdGVybGltaXQ6NDtzdHJva2UtZGFzaGFycmF5Om5vbmU7c3Ryb2tlLW9wYWNpdHk6MSIvPiYjeGE7ICAgICAgICAgIDxwYXRoIGlkPSJwYXRoMTMyOTAtMy0xLTQtMi0zIiBkPSJtIDc2LjMzMjYzNywyMDkuODMzMzQgLTUuNjc0MjEsNi44NDQxMSIgc3R5bGU9ImZpbGw6bm9uZTtzdHJva2U6IzAwMDAwMDtzdHJva2Utd2lkdGg6MC45MzU1NjU7c3Ryb2tlLWxpbmVjYXA6YnV0dDtzdHJva2UtbGluZWpvaW46bWl0ZXI7c3Ryb2tlLW1pdGVybGltaXQ6NDtzdHJva2UtZGFzaGFycmF5Om5vbmU7c3Ryb2tlLW9wYWNpdHk6MSIvPiYjeGE7ICAgICAgICAgIDxwYXRoIGlkPSJwYXRoMTMyOTAtMy0yLTgtNS0yLTMiIGQ9Im0gODEuMjYzMDQ3LDIwOS44MzMzNCAtNS42NzQyMSw2Ljg0NDExIiBzdHlsZT0iZmlsbDpub25lO3N0cm9rZTojMDAwMDAwO3N0cm9rZS13aWR0aDowLjkzNTU2NTtzdHJva2UtbGluZWNhcDpidXR0O3N0cm9rZS1saW5lam9pbjptaXRlcjtzdHJva2UtbWl0ZXJsaW1pdDo0O3N0cm9rZS1kYXNoYXJyYXk6bm9uZTtzdHJva2Utb3BhY2l0eToxIi8+JiN4YTsgICAgICAgICAgPHBhdGggaWQ9InBhdGg1NTc2LTgtNC0yLTgiIGQ9Im0gNzEuMzIxNDE3LDIwNy42MzUzNiB2IC0zMS42MTg3OCAxOC4xMTI3NiBsIDEwLjU3NDU3LC0xOC4zMjIxOSAtMTAuNTc0NTcsMTguMzIyMTkgLTEwLjQ2OTc3LC0xOC4wMDgxIiBzdHlsZT0iZmlsbDpub25lO3N0cm9rZTojMDAwMDAwO3N0cm9rZS13aWR0aDozLjY2NDUzO3N0cm9rZS1saW5lY2FwOmJ1dHQ7c3Ryb2tlLWxpbmVqb2luOm1pdGVyO3N0cm9rZS1taXRlcmxpbWl0OjQ7c3Ryb2tlLWRhc2hhcnJheTpub25lO3N0cm9rZS1vcGFjaXR5OjEiLz4mI3hhOyAgICAgICAgICA8cGF0aCBzdHlsZT0iZmlsbDpub25lO2ZpbGwtcnVsZTpldmVub2RkO3N0cm9rZTojMDAwMDAwO3N0cm9rZS13aWR0aDozLjY2NDUzO3N0cm9rZS1saW5lY2FwOmJ1dHQ7c3Ryb2tlLWxpbmVqb2luOm1pdGVyO3N0cm9rZS1taXRlcmxpbWl0OjQ7c3Ryb2tlLWRhc2hhcnJheTpub25lO3N0cm9rZS1vcGFjaXR5OjEiIGQ9Im0gNjEuMTM2NzY3LDIwOC4zMTc5IGggMjAuNDc3MDQiIGlkPSJwYXRoNTY0NS03LTItMSIvPiYjeGE7ICAgICAgICAgIDxwYXRoIHN0eWxlPSJmaWxsOm5vbmU7ZmlsbC1ydWxlOmV2ZW5vZGQ7c3Ryb2tlOiNmZjAwMDA7c3Ryb2tlLXdpZHRoOjE7c3Ryb2tlLWxpbmVjYXA6YnV0dDtzdHJva2UtbGluZWpvaW46bWl0ZXI7c3Ryb2tlLW1pdGVybGltaXQ6NDtzdHJva2UtZGFzaGFycmF5Om5vbmU7c3Ryb2tlLW9wYWNpdHk6MTttYXJrZXItZW5kOnVybCgjVHJpYW5nbGVPdXRMLTYtMi0zMSkiIGQ9Im0gNzEuMzc1Mjc3LDE5NS42MTk3NiB2IDIuNjcxMTQiIGlkPSJwYXRoNTM5MC03LTgiLz4mI3hhOyAgICAgICAgPC9nPiYjeGE7ICAgICAgPC9nPiYjeGE7ICAgIDwvZz4mI3hhOyAgPC9nPiYjeGE7PC9zdmc+;" vertex="1" parent="OysmFfrSoxLZyFZqwhQm-74">
          <mxGeometry x="74.69999999999999" y="40" width="16" height="16" as="geometry" />
        </mxCell>
        <mxCell id="OysmFfrSoxLZyFZqwhQm-73" value="" style="shape=image;verticalLabelPosition=bottom;labelBackgroundColor=default;verticalAlign=top;aspect=fixed;imageAspect=0;image=data:image/svg+xml,PHN2ZyB4bWxucz0iaHR0cDovL3d3dy53My5vcmcvMjAwMC9zdmciIGlkPSJzdmcxIiB2ZXJzaW9uPSIxLjEiIHZpZXdCb3g9IjAgMCAxNC40Nzc0NzYgMTQuMDc5NDc5IiBoZWlnaHQ9IjE0LjA3OTQ3OW1tIiB3aWR0aD0iMTQuNDc3NDc2bW0iPiYjeGE7ICAmI3hhOyAgPGRlZnMgaWQ9ImRlZnMxIj4mI3hhOyAgICA8bWFya2VyIHN0eWxlPSJvdmVyZmxvdzp2aXNpYmxlIiBpZD0iVHJpYW5nbGVPdXRMLTYtMi0zLTEtOCIgcmVmWD0iMCIgcmVmWT0iMCIgb3JpZW50PSJhdXRvIj4mI3hhOyAgICAgIDxwYXRoIHRyYW5zZm9ybT0ic2NhbGUoMC44KSIgc3R5bGU9ImZpbGw6I2ZmMDAwMDtmaWxsLW9wYWNpdHk6MTtmaWxsLXJ1bGU6ZXZlbm9kZDtzdHJva2U6I2ZmMDAwMDtzdHJva2Utd2lkdGg6MXB0O3N0cm9rZS1vcGFjaXR5OjEiIGQ9Ik0gNS43NywwIC0yLjg4LDUgViAtNSBaIiBpZD0icGF0aDQzNTMtOS0wLTAtNiIvPiYjeGE7ICAgIDwvbWFya2VyPiYjeGE7ICAgIDxtYXJrZXIgc3R5bGU9Im92ZXJmbG93OnZpc2libGUiIGlkPSJUcmlhbmdsZU91dEwtNi0yLTMxIiByZWZYPSIwIiByZWZZPSIwIiBvcmllbnQ9ImF1dG8iPiYjeGE7ICAgICAgPHBhdGggdHJhbnNmb3JtPSJzY2FsZSgwLjgpIiBzdHlsZT0iZmlsbDojZmYwMDAwO2ZpbGwtb3BhY2l0eToxO2ZpbGwtcnVsZTpldmVub2RkO3N0cm9rZTojZmYwMDAwO3N0cm9rZS13aWR0aDoxcHQ7c3Ryb2tlLW9wYWNpdHk6MSIgZD0iTSA1Ljc3LDAgLTIuODgsNSBWIC01IFoiIGlkPSJwYXRoNDM1My05LTAtNSIvPiYjeGE7ICAgIDwvbWFya2VyPiYjeGE7ICA8L2RlZnM+JiN4YTsgIDxnIHRyYW5zZm9ybT0idHJhbnNsYXRlKC0xNTcuNjkxNjYsLTE3NS40MTg3NSkiIGlkPSJsYXllcjEiPiYjeGE7ICAgIDxnIHN0eWxlPSJkaXNwbGF5OmlubGluZSIgaWQ9Imc2OTk1IiB0cmFuc2Zvcm09Im1hdHJpeCgwLjI4MjIyMjIzLDAsMCwwLjI4MjIyMjIzLDEyMC4zMTM0OCwtODcuNTE2NzkzKSI+JiN4YTsgICAgICA8ZyBpZD0iZzYzNzEtNSIgdHJhbnNmb3JtPSJ0cmFuc2xhdGUoODYuNzE2MTYyLDc2MC42NzE2NykiPiYjeGE7ICAgICAgICA8cmVjdCByeT0iOC4wODEyMjA2IiB5PSIxNzEuOTg5NjkiIHg9IjQ2LjcyNjIwOCIgaGVpZ2h0PSI0Ny44ODc5MTciIHdpZHRoPSI0OS4yOTgxNDEiIGlkPSJyZWN0NDEzNi05LTIiIHN0eWxlPSJmaWxsOm5vbmU7ZmlsbC1vcGFjaXR5OjE7c3Ryb2tlOiMwMDAwMDA7c3Ryb2tlLXdpZHRoOjI7c3Ryb2tlLWxpbmVqb2luOnJvdW5kO3N0cm9rZS1taXRlcmxpbWl0OjEwO3N0cm9rZS1kYXNoYXJyYXk6bm9uZTtzdHJva2UtZGFzaG9mZnNldDowO3N0cm9rZS1vcGFjaXR5OjEiLz4mI3hhOyAgICAgICAgPGcgaWQ9Imc2MzYxLTMiPiYjeGE7ICAgICAgICAgIDxwYXRoIGlkPSJwYXRoMTMyOTAtMi00LTciIGQ9Im0gNjEuNTQxMjg3LDIwOS44MzMzNCAtNS42NzQyNCw2Ljg0NDExIiBzdHlsZT0iZmlsbDpub25lO3N0cm9rZTojMDAwMDAwO3N0cm9rZS13aWR0aDowLjkzNTU2NTtzdHJva2UtbGluZWNhcDpidXR0O3N0cm9rZS1saW5lam9pbjptaXRlcjtzdHJva2UtbWl0ZXJsaW1pdDo0O3N0cm9rZS1kYXNoYXJyYXk6bm9uZTtzdHJva2Utb3BhY2l0eToxIi8+JiN4YTsgICAgICAgICAgPHBhdGggaWQ9InBhdGgxMzI5MC0zLTgtNC0zIiBkPSJtIDY2LjQ3MTY4NywyMDkuODMzMzQgLTUuNjc0MjEsNi44NDQxMSIgc3R5bGU9ImZpbGw6bm9uZTtzdHJva2U6IzAwMDAwMDtzdHJva2Utd2lkdGg6MC45MzU1NjU7c3Ryb2tlLWxpbmVjYXA6YnV0dDtzdHJva2UtbGluZWpvaW46bWl0ZXI7c3Ryb2tlLW1pdGVybGltaXQ6NDtzdHJva2UtZGFzaGFycmF5Om5vbmU7c3Ryb2tlLW9wYWNpdHk6MSIvPiYjeGE7ICAgICAgICAgIDxwYXRoIGlkPSJwYXRoMTMyOTAtMy0yLTItNC02IiBkPSJtIDcxLjQwMjE2NywyMDkuODMzMzQgLTUuNjc0MjIsNi44NDQxMSIgc3R5bGU9ImZpbGw6bm9uZTtzdHJva2U6IzAwMDAwMDtzdHJva2Utd2lkdGg6MC45MzU1NjU7c3Ryb2tlLWxpbmVjYXA6YnV0dDtzdHJva2UtbGluZWpvaW46bWl0ZXI7c3Ryb2tlLW1pdGVybGltaXQ6NDtzdHJva2UtZGFzaGFycmF5Om5vbmU7c3Ryb2tlLW9wYWNpdHk6MSIvPiYjeGE7ICAgICAgICAgIDxwYXRoIGlkPSJwYXRoMTMyOTAtMy0xLTQtMi0zIiBkPSJtIDc2LjMzMjYzNywyMDkuODMzMzQgLTUuNjc0MjEsNi44NDQxMSIgc3R5bGU9ImZpbGw6bm9uZTtzdHJva2U6IzAwMDAwMDtzdHJva2Utd2lkdGg6MC45MzU1NjU7c3Ryb2tlLWxpbmVjYXA6YnV0dDtzdHJva2UtbGluZWpvaW46bWl0ZXI7c3Ryb2tlLW1pdGVybGltaXQ6NDtzdHJva2UtZGFzaGFycmF5Om5vbmU7c3Ryb2tlLW9wYWNpdHk6MSIvPiYjeGE7ICAgICAgICAgIDxwYXRoIGlkPSJwYXRoMTMyOTAtMy0yLTgtNS0yLTMiIGQ9Im0gODEuMjYzMDQ3LDIwOS44MzMzNCAtNS42NzQyMSw2Ljg0NDExIiBzdHlsZT0iZmlsbDpub25lO3N0cm9rZTojMDAwMDAwO3N0cm9rZS13aWR0aDowLjkzNTU2NTtzdHJva2UtbGluZWNhcDpidXR0O3N0cm9rZS1saW5lam9pbjptaXRlcjtzdHJva2UtbWl0ZXJsaW1pdDo0O3N0cm9rZS1kYXNoYXJyYXk6bm9uZTtzdHJva2Utb3BhY2l0eToxIi8+JiN4YTsgICAgICAgICAgPHBhdGggaWQ9InBhdGg1NTc2LTgtNC0yLTgiIGQ9Im0gNzEuMzIxNDE3LDIwNy42MzUzNiB2IC0zMS42MTg3OCAxOC4xMTI3NiBsIDEwLjU3NDU3LC0xOC4zMjIxOSAtMTAuNTc0NTcsMTguMzIyMTkgLTEwLjQ2OTc3LC0xOC4wMDgxIiBzdHlsZT0iZmlsbDpub25lO3N0cm9rZTojMDAwMDAwO3N0cm9rZS13aWR0aDozLjY2NDUzO3N0cm9rZS1saW5lY2FwOmJ1dHQ7c3Ryb2tlLWxpbmVqb2luOm1pdGVyO3N0cm9rZS1taXRlcmxpbWl0OjQ7c3Ryb2tlLWRhc2hhcnJheTpub25lO3N0cm9rZS1vcGFjaXR5OjEiLz4mI3hhOyAgICAgICAgICA8cGF0aCBzdHlsZT0iZmlsbDpub25lO2ZpbGwtcnVsZTpldmVub2RkO3N0cm9rZTojMDAwMDAwO3N0cm9rZS13aWR0aDozLjY2NDUzO3N0cm9rZS1saW5lY2FwOmJ1dHQ7c3Ryb2tlLWxpbmVqb2luOm1pdGVyO3N0cm9rZS1taXRlcmxpbWl0OjQ7c3Ryb2tlLWRhc2hhcnJheTpub25lO3N0cm9rZS1vcGFjaXR5OjEiIGQ9Im0gNjEuMTM2NzY3LDIwOC4zMTc5IGggMjAuNDc3MDQiIGlkPSJwYXRoNTY0NS03LTItMSIvPiYjeGE7ICAgICAgICAgIDxwYXRoIHN0eWxlPSJmaWxsOm5vbmU7ZmlsbC1ydWxlOmV2ZW5vZGQ7c3Ryb2tlOiNmZjAwMDA7c3Ryb2tlLXdpZHRoOjE7c3Ryb2tlLWxpbmVjYXA6YnV0dDtzdHJva2UtbGluZWpvaW46bWl0ZXI7c3Ryb2tlLW1pdGVybGltaXQ6NDtzdHJva2UtZGFzaGFycmF5Om5vbmU7c3Ryb2tlLW9wYWNpdHk6MTttYXJrZXItZW5kOnVybCgjVHJpYW5nbGVPdXRMLTYtMi0zMSkiIGQ9Im0gNzEuMzc1Mjc3LDE5NS42MTk3NiB2IDIuNjcxMTQiIGlkPSJwYXRoNTM5MC03LTgiLz4mI3hhOyAgICAgICAgPC9nPiYjeGE7ICAgICAgPC9nPiYjeGE7ICAgIDwvZz4mI3hhOyAgPC9nPiYjeGE7PC9zdmc+;" vertex="1" parent="OysmFfrSoxLZyFZqwhQm-74">
          <mxGeometry x="65" y="13" width="16" height="16" as="geometry" />
        </mxCell>
        <mxCell id="OysmFfrSoxLZyFZqwhQm-85" value="" style="endArrow=classic;html=1;rounded=1;strokeWidth=0.5;" edge="1" parent="OysmFfrSoxLZyFZqwhQm-74">
          <mxGeometry width="50" height="50" relative="1" as="geometry">
            <mxPoint x="7.999999999999998" y="59.730000000000004" as="sourcePoint" />
            <mxPoint x="25" y="67.73" as="targetPoint" />
            <Array as="points">
              <mxPoint x="7.999999999999998" y="67.73" />
            </Array>
          </mxGeometry>
        </mxCell>
        <mxCell id="OysmFfrSoxLZyFZqwhQm-86" value="" style="endArrow=none;dashed=1;html=1;dashPattern=1 3;strokeWidth=1;rounded=0;" edge="1" parent="OysmFfrSoxLZyFZqwhQm-74">
          <mxGeometry width="50" height="50" relative="1" as="geometry">
            <mxPoint x="24.85" y="67.73" as="sourcePoint" />
            <mxPoint x="35.35" y="67.73" as="targetPoint" />
          </mxGeometry>
        </mxCell>
        <mxCell id="OysmFfrSoxLZyFZqwhQm-92" value="" style="endArrow=classic;html=1;rounded=1;strokeWidth=0.5;" edge="1" parent="OysmFfrSoxLZyFZqwhQm-74">
          <mxGeometry width="50" height="50" relative="1" as="geometry">
            <mxPoint x="8" y="32.730000000000004" as="sourcePoint" />
            <mxPoint x="25" y="40.730000000000004" as="targetPoint" />
            <Array as="points">
              <mxPoint x="8" y="40.730000000000004" />
            </Array>
          </mxGeometry>
        </mxCell>
        <mxCell id="OysmFfrSoxLZyFZqwhQm-93" value="" style="endArrow=none;dashed=1;html=1;dashPattern=1 3;strokeWidth=1;rounded=0;" edge="1" parent="OysmFfrSoxLZyFZqwhQm-74">
          <mxGeometry width="50" height="50" relative="1" as="geometry">
            <mxPoint x="24.85" y="40.730000000000004" as="sourcePoint" />
            <mxPoint x="35.35" y="40.730000000000004" as="targetPoint" />
          </mxGeometry>
        </mxCell>
        <mxCell id="OysmFfrSoxLZyFZqwhQm-94" value="" style="endArrow=classic;html=1;rounded=1;strokeWidth=0.5;" edge="1" parent="OysmFfrSoxLZyFZqwhQm-74">
          <mxGeometry width="50" height="50" relative="1" as="geometry">
            <mxPoint x="24" y="16.000000000000007" as="sourcePoint" />
            <mxPoint x="41" y="24.000000000000007" as="targetPoint" />
            <Array as="points">
              <mxPoint x="24" y="24.000000000000007" />
            </Array>
          </mxGeometry>
        </mxCell>
        <mxCell id="OysmFfrSoxLZyFZqwhQm-95" value="" style="endArrow=none;dashed=1;html=1;dashPattern=1 3;strokeWidth=1;rounded=0;" edge="1" parent="OysmFfrSoxLZyFZqwhQm-74">
          <mxGeometry width="50" height="50" relative="1" as="geometry">
            <mxPoint x="40.85" y="24.000000000000007" as="sourcePoint" />
            <mxPoint x="51.35" y="24.000000000000007" as="targetPoint" />
          </mxGeometry>
        </mxCell>
        <mxCell id="OysmFfrSoxLZyFZqwhQm-96" value="" style="endArrow=classic;html=1;rounded=1;strokeWidth=0.5;" edge="1" parent="OysmFfrSoxLZyFZqwhQm-74">
          <mxGeometry width="50" height="50" relative="1" as="geometry">
            <mxPoint x="73" y="22" as="sourcePoint" />
            <mxPoint x="90" y="30" as="targetPoint" />
            <Array as="points">
              <mxPoint x="73" y="30" />
            </Array>
          </mxGeometry>
        </mxCell>
        <mxCell id="OysmFfrSoxLZyFZqwhQm-97" value="" style="endArrow=none;dashed=1;html=1;dashPattern=1 3;strokeWidth=1;rounded=0;" edge="1" parent="OysmFfrSoxLZyFZqwhQm-74">
          <mxGeometry width="50" height="50" relative="1" as="geometry">
            <mxPoint x="89.85" y="30" as="sourcePoint" />
            <mxPoint x="100.35" y="30" as="targetPoint" />
          </mxGeometry>
        </mxCell>
        <mxCell id="OysmFfrSoxLZyFZqwhQm-100" value="" style="endArrow=classic;html=1;rounded=1;strokeWidth=0.5;" edge="1" parent="OysmFfrSoxLZyFZqwhQm-74">
          <mxGeometry width="50" height="50" relative="1" as="geometry">
            <mxPoint x="73" y="72.00000000000001" as="sourcePoint" />
            <mxPoint x="90" y="80.00000000000001" as="targetPoint" />
            <Array as="points">
              <mxPoint x="73" y="80.00000000000001" />
            </Array>
          </mxGeometry>
        </mxCell>
        <mxCell id="OysmFfrSoxLZyFZqwhQm-101" value="" style="endArrow=none;dashed=1;html=1;dashPattern=1 3;strokeWidth=1;rounded=0;" edge="1" parent="OysmFfrSoxLZyFZqwhQm-74">
          <mxGeometry width="50" height="50" relative="1" as="geometry">
            <mxPoint x="89.85" y="80.00000000000001" as="sourcePoint" />
            <mxPoint x="100.35" y="80.00000000000001" as="targetPoint" />
          </mxGeometry>
        </mxCell>
        <mxCell id="OysmFfrSoxLZyFZqwhQm-102" value="" style="endArrow=classic;html=1;rounded=1;strokeWidth=0.5;" edge="1" parent="OysmFfrSoxLZyFZqwhQm-74">
          <mxGeometry width="50" height="50" relative="1" as="geometry">
            <mxPoint x="50" y="83.87" as="sourcePoint" />
            <mxPoint x="67" y="91.87" as="targetPoint" />
            <Array as="points">
              <mxPoint x="50" y="91.87" />
            </Array>
          </mxGeometry>
        </mxCell>
        <mxCell id="OysmFfrSoxLZyFZqwhQm-103" value="" style="endArrow=none;dashed=1;html=1;dashPattern=1 3;strokeWidth=1;rounded=0;" edge="1" parent="OysmFfrSoxLZyFZqwhQm-74">
          <mxGeometry width="50" height="50" relative="1" as="geometry">
            <mxPoint x="66.85" y="91.87" as="sourcePoint" />
            <mxPoint x="77.35" y="91.87" as="targetPoint" />
          </mxGeometry>
        </mxCell>
        <mxCell id="OysmFfrSoxLZyFZqwhQm-108" value="" style="endArrow=classic;html=1;rounded=1;strokeWidth=0.5;" edge="1" parent="OysmFfrSoxLZyFZqwhQm-74">
          <mxGeometry width="50" height="50" relative="1" as="geometry">
            <mxPoint x="50" y="8.14" as="sourcePoint" />
            <mxPoint x="68" y="7.8700000000000045" as="targetPoint" />
            <Array as="points">
              <mxPoint x="51" y="7.8700000000000045" />
            </Array>
          </mxGeometry>
        </mxCell>
        <mxCell id="OysmFfrSoxLZyFZqwhQm-109" value="" style="endArrow=none;dashed=1;html=1;dashPattern=1 3;strokeWidth=1;rounded=0;" edge="1" parent="OysmFfrSoxLZyFZqwhQm-74">
          <mxGeometry width="50" height="50" relative="1" as="geometry">
            <mxPoint x="67.85" y="7.8700000000000045" as="sourcePoint" />
            <mxPoint x="78.35" y="7.8700000000000045" as="targetPoint" />
          </mxGeometry>
        </mxCell>
        <mxCell id="OysmFfrSoxLZyFZqwhQm-105" value="" style="endArrow=none;dashed=1;html=1;dashPattern=1 3;strokeWidth=1;rounded=0;" edge="1" parent="OysmFfrSoxLZyFZqwhQm-74">
          <mxGeometry width="50" height="50" relative="1" as="geometry">
            <mxPoint x="47.49999999999999" y="71.73" as="sourcePoint" />
            <mxPoint x="57.99999999999999" y="71.73" as="targetPoint" />
          </mxGeometry>
        </mxCell>
        <mxCell id="OysmFfrSoxLZyFZqwhQm-75" value="&lt;font style=&quot;font-size: 10px;&quot;&gt;$$\textbf&lt;br style=&quot;font-size: 10px;&quot;&gt;{Emitter 1}$$&lt;/font&gt;" style="text;html=1;align=center;verticalAlign=middle;resizable=0;points=[];autosize=1;strokeColor=none;fillColor=none;fontSize=10;" vertex="1" parent="1">
          <mxGeometry x="-34" y="-95" width="76" height="36" as="geometry" />
        </mxCell>
        <mxCell id="OysmFfrSoxLZyFZqwhQm-77" value="" style="endArrow=none;dashed=1;html=1;dashPattern=1 3;strokeWidth=2.5;rounded=0;" edge="1" parent="1">
          <mxGeometry width="50" height="50" relative="1" as="geometry">
            <mxPoint x="37.85" y="-52.1" as="sourcePoint" />
            <mxPoint x="62.849999999999994" y="-52.1" as="targetPoint" />
          </mxGeometry>
        </mxCell>
        <mxCell id="OysmFfrSoxLZyFZqwhQm-78" value="$$\text{Antenna Path 1}$$" style="rounded=1;whiteSpace=wrap;html=1;fontSize=10;" vertex="1" parent="1">
          <mxGeometry x="265" y="-17" width="93" height="20" as="geometry" />
        </mxCell>
        <mxCell id="OysmFfrSoxLZyFZqwhQm-83" value="" style="endArrow=classic;html=1;rounded=0;entryX=0;entryY=0.25;entryDx=0;entryDy=0;" edge="1" parent="1" target="OysmFfrSoxLZyFZqwhQm-43">
          <mxGeometry width="50" height="50" relative="1" as="geometry">
            <mxPoint x="148" y="-9" as="sourcePoint" />
            <mxPoint x="146" y="-29" as="targetPoint" />
          </mxGeometry>
        </mxCell>
        <mxCell id="OysmFfrSoxLZyFZqwhQm-84" value="" style="endArrow=classic;html=1;entryX=0;entryY=0.25;entryDx=0;entryDy=0;curved=1;" edge="1" parent="1">
          <mxGeometry width="50" height="50" relative="1" as="geometry">
            <mxPoint x="148" y="48" as="sourcePoint" />
            <mxPoint x="185" y="48" as="targetPoint" />
          </mxGeometry>
        </mxCell>
        <mxCell id="OysmFfrSoxLZyFZqwhQm-98" value="" style="endArrow=classic;html=1;rounded=1;strokeWidth=0.5;" edge="1" parent="1">
          <mxGeometry width="50" height="50" relative="1" as="geometry">
            <mxPoint x="86" y="36.00000000000001" as="sourcePoint" />
            <mxPoint x="103" y="44.00000000000001" as="targetPoint" />
            <Array as="points">
              <mxPoint x="86" y="44.00000000000001" />
            </Array>
          </mxGeometry>
        </mxCell>
        <mxCell id="OysmFfrSoxLZyFZqwhQm-99" value="" style="endArrow=none;dashed=1;html=1;dashPattern=1 3;strokeWidth=1;rounded=0;" edge="1" parent="1">
          <mxGeometry width="50" height="50" relative="1" as="geometry">
            <mxPoint x="102.85" y="44.00000000000001" as="sourcePoint" />
            <mxPoint x="113.35" y="44.00000000000001" as="targetPoint" />
          </mxGeometry>
        </mxCell>
        <mxCell id="OysmFfrSoxLZyFZqwhQm-110" value="" style="endArrow=none;dashed=1;html=1;dashPattern=1 3;strokeWidth=1;rounded=0;" edge="1" parent="1">
          <mxGeometry width="50" height="50" relative="1" as="geometry">
            <mxPoint x="135.85" y="48.000000000000014" as="sourcePoint" />
            <mxPoint x="146.35" y="48.000000000000014" as="targetPoint" />
          </mxGeometry>
        </mxCell>
        <mxCell id="OysmFfrSoxLZyFZqwhQm-111" value="" style="endArrow=none;dashed=1;html=1;dashPattern=1 3;strokeWidth=1;rounded=0;" edge="1" parent="1">
          <mxGeometry width="50" height="50" relative="1" as="geometry">
            <mxPoint x="136.85" y="-8.999999999999986" as="sourcePoint" />
            <mxPoint x="147.35" y="-8.999999999999986" as="targetPoint" />
          </mxGeometry>
        </mxCell>
        <mxCell id="OysmFfrSoxLZyFZqwhQm-112" value="" style="endArrow=none;dashed=1;html=1;dashPattern=1 3;strokeWidth=2.5;rounded=1;" edge="1" parent="1">
          <mxGeometry width="50" height="50" relative="1" as="geometry">
            <mxPoint x="160" y="9.339999999999996" as="sourcePoint" />
            <mxPoint x="160" y="33" as="targetPoint" />
          </mxGeometry>
        </mxCell>
        <mxCell id="OysmFfrSoxLZyFZqwhQm-113" value="" style="endArrow=none;dashed=1;html=1;dashPattern=1 3;strokeWidth=2.5;rounded=1;" edge="1" parent="1">
          <mxGeometry width="50" height="50" relative="1" as="geometry">
            <mxPoint x="314" y="5.9999999999999964" as="sourcePoint" />
            <mxPoint x="314" y="29.659999999999997" as="targetPoint" />
          </mxGeometry>
        </mxCell>
        <mxCell id="OysmFfrSoxLZyFZqwhQm-114" value="" style="endArrow=classic;html=1;rounded=0;entryX=0;entryY=0.5;entryDx=0;entryDy=0;" edge="1" parent="1" target="OysmFfrSoxLZyFZqwhQm-78">
          <mxGeometry width="50" height="50" relative="1" as="geometry">
            <mxPoint x="231" y="-7" as="sourcePoint" />
            <mxPoint x="268" y="-6.13" as="targetPoint" />
          </mxGeometry>
        </mxCell>
        <mxCell id="OysmFfrSoxLZyFZqwhQm-115" value="" style="endArrow=classic;html=1;rounded=0;entryX=0;entryY=0.5;entryDx=0;entryDy=0;" edge="1" parent="1">
          <mxGeometry width="50" height="50" relative="1" as="geometry">
            <mxPoint x="231" y="42" as="sourcePoint" />
            <mxPoint x="265" y="42" as="targetPoint" />
          </mxGeometry>
        </mxCell>
        <mxCell id="OysmFfrSoxLZyFZqwhQm-117" value="" style="verticalLabelPosition=bottom;shadow=0;dashed=0;align=center;html=1;verticalAlign=top;strokeWidth=1;shape=mxgraph.mockup.markup.curlyBrace;whiteSpace=wrap;strokeColor=#999999;rotation=-90;" vertex="1" parent="1">
          <mxGeometry x="-49" y="24" width="92" height="20" as="geometry" />
        </mxCell>
        <mxCell id="OysmFfrSoxLZyFZqwhQm-120" value="&lt;font style=&quot;font-size: 10px;&quot;&gt;$$\text{UCA}$$&lt;/font&gt;" style="text;html=1;align=center;verticalAlign=middle;resizable=0;points=[];autosize=1;strokeColor=none;fillColor=none;rotation=-90;" vertex="1" parent="1">
          <mxGeometry x="-67" y="21" width="87" height="26" as="geometry" />
        </mxCell>
        <mxCell id="OysmFfrSoxLZyFZqwhQm-121" value="&lt;font style=&quot;font-size: 10px;&quot;&gt;$$\textbf{&lt;br style=&quot;font-size: 10px;&quot;&gt;Emitter N&lt;br style=&quot;font-size: 10px;&quot;&gt;}$$&lt;/font&gt;" style="text;html=1;align=center;verticalAlign=middle;resizable=0;points=[];autosize=1;strokeColor=none;fillColor=none;fontSize=10;" vertex="1" parent="1">
          <mxGeometry x="64" y="-99" width="60" height="48" as="geometry" />
        </mxCell>
        <mxCell id="OysmFfrSoxLZyFZqwhQm-104" value="" style="endArrow=classic;html=1;rounded=1;strokeWidth=0.5;exitX=0.625;exitY=0.5;exitDx=0;exitDy=0;exitPerimeter=0;" edge="1" parent="1" source="OysmFfrSoxLZyFZqwhQm-68">
          <mxGeometry width="50" height="50" relative="1" as="geometry">
            <mxPoint x="26" y="93" as="sourcePoint" />
            <mxPoint x="52" y="60" as="targetPoint" />
            <Array as="points">
              <mxPoint x="34" y="69" />
              <mxPoint x="38" y="69" />
              <mxPoint x="38" y="60" />
            </Array>
          </mxGeometry>
        </mxCell>
        <mxCell id="OysmFfrSoxLZyFZqwhQm-124" value="&lt;font style=&quot;font-size: 10px;&quot;&gt;$$\text{&lt;br style=&quot;font-size: 10px;&quot;&gt;Switch Matrix&lt;br style=&quot;font-size: 10px;&quot;&gt;}$$&lt;/font&gt;" style="text;html=1;align=center;verticalAlign=middle;resizable=0;points=[];autosize=1;strokeColor=none;fillColor=none;fontSize=10;" vertex="1" parent="1">
          <mxGeometry x="172.99999999999997" y="-60" width="77" height="48" as="geometry" />
        </mxCell>
        <mxCell id="OysmFfrSoxLZyFZqwhQm-125" value="&lt;font style=&quot;font-size: 10px;&quot;&gt;$$\textbf&lt;br&gt;{Measurement Model}&lt;br&gt;$$&lt;/font&gt;" style="text;html=1;align=center;verticalAlign=middle;resizable=0;points=[];autosize=1;strokeColor=none;fillColor=none;fontColor=#0042AA;" vertex="1" parent="1">
          <mxGeometry x="212" y="-98" width="116" height="54" as="geometry" />
        </mxCell>
        <mxCell id="OysmFfrSoxLZyFZqwhQm-127" value="$$&lt;br style=&quot;border-color: var(--border-color);&quot;&gt;\bfm{D}[j]\bfm{n}[j]&lt;br style=&quot;border-color: var(--border-color);&quot;&gt;$$" style="text;html=1;align=center;verticalAlign=middle;resizable=0;points=[];autosize=1;strokeColor=none;fillColor=none;" vertex="1" parent="1">
          <mxGeometry x="265" y="-69.5" width="148" height="54" as="geometry" />
        </mxCell>
        <mxCell id="OysmFfrSoxLZyFZqwhQm-131" value="" style="shape=orEllipse;perimeter=ellipsePerimeter;whiteSpace=wrap;html=1;backgroundOutline=1;" vertex="1" parent="1">
          <mxGeometry x="385" y="36" width="17" height="17" as="geometry" />
        </mxCell>
        <mxCell id="OysmFfrSoxLZyFZqwhQm-132" value="" style="shape=orEllipse;perimeter=ellipsePerimeter;whiteSpace=wrap;html=1;backgroundOutline=1;" vertex="1" parent="1">
          <mxGeometry x="385" y="-15.5" width="17" height="17" as="geometry" />
        </mxCell>
        <mxCell id="OysmFfrSoxLZyFZqwhQm-134" value="" style="endArrow=classic;html=1;entryX=0.867;entryY=1.024;entryDx=0;entryDy=0;startArrow=oval;startFill=0;entryPerimeter=0;rounded=1;" edge="1" parent="1" target="OysmFfrSoxLZyFZqwhQm-127">
          <mxGeometry width="50" height="50" relative="1" as="geometry">
            <mxPoint x="369.51" y="-41" as="sourcePoint" />
            <mxPoint x="417.49" y="36" as="targetPoint" />
            <Array as="points">
              <mxPoint x="394" y="-41" />
            </Array>
          </mxGeometry>
        </mxCell>
        <mxCell id="OysmFfrSoxLZyFZqwhQm-146" value="" style="endArrow=classic;html=1;rounded=0;" edge="1" parent="1">
          <mxGeometry width="50" height="50" relative="1" as="geometry">
            <mxPoint x="358" y="-7.220000000000001" as="sourcePoint" />
            <mxPoint x="384" y="-7" as="targetPoint" />
          </mxGeometry>
        </mxCell>
        <mxCell id="OysmFfrSoxLZyFZqwhQm-147" value="" style="endArrow=classic;html=1;rounded=0;" edge="1" parent="1">
          <mxGeometry width="50" height="50" relative="1" as="geometry">
            <mxPoint x="359" y="43.78" as="sourcePoint" />
            <mxPoint x="385" y="44" as="targetPoint" />
          </mxGeometry>
        </mxCell>
        <mxCell id="OysmFfrSoxLZyFZqwhQm-148" value="" style="endArrow=none;dashed=1;html=1;dashPattern=1 3;strokeWidth=1;rounded=1;" edge="1" parent="1">
          <mxGeometry width="50" height="50" relative="1" as="geometry">
            <mxPoint x="394" y="12.999999999999996" as="sourcePoint" />
            <mxPoint x="394" y="25" as="targetPoint" />
          </mxGeometry>
        </mxCell>
        <mxCell id="OysmFfrSoxLZyFZqwhQm-150" value="" style="endArrow=classic;html=1;rounded=0;" edge="1" parent="1">
          <mxGeometry width="50" height="50" relative="1" as="geometry">
            <mxPoint x="411" y="6" as="sourcePoint" />
            <mxPoint x="533" y="6" as="targetPoint" />
          </mxGeometry>
        </mxCell>
        <mxCell id="OysmFfrSoxLZyFZqwhQm-152" value="&lt;font style=&quot;font-size: 10px;&quot;&gt;$$\textbf&lt;br&gt;{Measurement Vector}&lt;br&gt;$$&lt;/font&gt;" style="text;html=1;align=center;verticalAlign=middle;resizable=0;points=[];autosize=1;strokeColor=none;fillColor=none;" vertex="1" parent="1">
          <mxGeometry x="419" y="-41" width="117" height="54" as="geometry" />
        </mxCell>
        <mxCell id="OysmFfrSoxLZyFZqwhQm-158" value="&lt;font color=&quot;#0042aa&quot; style=&quot;font-size: 10px;&quot;&gt;$$\textbf&lt;br&gt;{Emitter Model}&lt;br&gt;$$&lt;/font&gt;" style="text;html=1;align=center;verticalAlign=middle;resizable=0;points=[];autosize=1;strokeColor=none;fillColor=none;fontColor=#999999;" vertex="1" parent="1">
          <mxGeometry x="4" y="-128" width="86" height="54" as="geometry" />
        </mxCell>
        <mxCell id="OysmFfrSoxLZyFZqwhQm-159" value="&lt;font color=&quot;#0042aa&quot; style=&quot;font-size: 10px;&quot;&gt;$$\textbf&lt;br&gt;{Antenna Model}&lt;br&gt;$$&lt;/font&gt;" style="text;html=1;align=center;verticalAlign=middle;resizable=0;points=[];autosize=1;strokeColor=none;fillColor=none;fontColor=#999999999;" vertex="1" parent="1">
          <mxGeometry x="2.3499999999999943" y="-48.5" width="92" height="54" as="geometry" />
        </mxCell>
        <mxCell id="OysmFfrSoxLZyFZqwhQm-161" value="$$\text{Antenna Path N}$$" style="rounded=1;whiteSpace=wrap;html=1;fontSize=10;" vertex="1" parent="1">
          <mxGeometry x="265" y="32" width="93" height="20" as="geometry" />
        </mxCell>
        <mxCell id="OysmFfrSoxLZyFZqwhQm-162" value="" style="endArrow=classic;html=1;rounded=0;entryX=0.5;entryY=0;entryDx=0;entryDy=0;" edge="1" parent="1" target="OysmFfrSoxLZyFZqwhQm-131">
          <mxGeometry width="50" height="50" relative="1" as="geometry">
            <mxPoint x="394" y="22" as="sourcePoint" />
            <mxPoint x="465" y="-4" as="targetPoint" />
          </mxGeometry>
        </mxCell>
      </root>
    </mxGraphModel>
  </diagram>
</mxfile>
